<svg version="1.1" viewBox="0.0 0.0 600.0 371.0" fill="none" stroke="none" stroke-linecap="square" stroke-miterlimit="10" width="600" height="371" xmlns:xlink="http://www.w3.org/1999/xlink" xmlns="http://www.w3.org/2000/svg"><path fill="#ffffff" d="M0 0L600.0 0L600.0 371.0L0 371.0L0 0Z" fill-rule="nonzero"/><path fill="#4285f4" d="M300.0 18.55C371.02866 18.55 434.28064 63.49149 457.65283 130.56467L300.0 185.5Z" fill-rule="nonzero"/><path fill="#ea4335" d="M457.65283 130.56467C464.55792 150.38086 467.66522 171.32121 466.81192 192.28867L300.0 185.5Z" fill-rule="nonzero"/><path fill="#fbbc04" d="M466.81192 192.28867C465.6136 221.73419 456.64236 250.33783 440.80975 275.19348L300.0 185.5Z" fill-rule="nonzero"/><path fill="#34a853" d="M440.80975 275.19348C426.42923 297.76944 406.8312 316.55673 383.66818 329.97122L300.0 185.5Z" fill-rule="nonzero"/><path fill="#ff6d01" d="M383.66818 329.97122C364.20187 341.24484 342.65802 348.46817 320.3303 351.20752L300.0 185.5Z" fill-rule="nonzero"/><path fill="#fcd04f" d="M187.41203 308.77307C136.53525 262.3062 119.431335 189.35698 144.35178 125.118454C169.2722 60.879925 231.09705 18.55 300.0 18.55L300.0 185.5Z" fill-rule="nonzero"/><path fill="#f07b72" d="M222.80086 333.52905C209.98248 326.8441 198.0867 318.5225 187.41203 308.77307L300.0 185.5Z" fill-rule="nonzero"/><path fill="#7baaf7" d="M257.41605 346.92773C245.4155 343.76202 233.80536 339.26804 222.80086 333.52905L300.0 185.5Z" fill-rule="nonzero"/><path fill="#46bdc6" d="M320.3303 351.20752C299.2774 353.79044 277.92517 352.33795 257.41605 346.92773L300.0 185.5Z" fill-rule="nonzero"/><path fill="#1a1a1a" d="M21.925 123.63753L18.596874 115.04378L19.83125 115.04378L22.065624 121.29378Q22.33125 122.04378 22.51875 122.70003Q22.721874 121.9969 22.9875 121.29378L25.3 115.04378L26.45625 115.04378L23.096874 123.63753L21.925 123.63753ZM30.409374 122.8719Q29.815624 123.3719 29.26875 123.57503Q28.7375 123.77815 28.1125 123.77815Q27.08125 123.77815 26.534374 123.27815Q25.9875 122.77815 25.9875 121.9969Q25.9875 121.54378 26.190624 121.16878Q26.39375 120.77815 26.7375 120.5594Q27.08125 120.32503 27.503124 120.21565Q27.8 120.1219 28.440624 120.04378Q29.70625 119.90315 30.315624 119.6844Q30.315624 119.46565 30.315624 119.41878Q30.315624 118.76253 30.01875 118.4969Q29.6125 118.15315 28.815624 118.15315Q28.08125 118.15315 27.721874 118.41878Q27.3625 118.66878 27.190624 119.32503L26.159374 119.1844Q26.3 118.52815 26.628124 118.1219Q26.95625 117.71565 27.565624 117.4969Q28.175 117.27815 28.971874 117.27815Q29.76875 117.27815 30.26875 117.46565Q30.76875 117.65315 31.003124 117.9344Q31.2375 118.21565 31.33125 118.65315Q31.378124 118.91878 31.378124 119.6219L31.378124 121.02815Q31.378124 122.4969 31.440624 122.88753Q31.51875 123.27815 31.721874 123.63753L30.6125 123.63753Q30.45625 123.3094 30.409374 122.8719ZM30.315624 120.51253Q29.7375 120.7469 28.596874 120.91878Q27.940624 121.01253 27.675 121.13753Q27.409374 121.2469 27.253124 121.46565Q27.1125 121.6844 27.1125 121.96565Q27.1125 122.38753 27.425 122.66878Q27.753124 122.95003 28.3625 122.95003Q28.971874 122.95003 29.440624 122.6844Q29.925 122.41878 30.14375 121.95003Q30.315624 121.59065 30.315624 120.90315L30.315624 120.51253ZM33.315624 123.63753L33.315624 115.04378L34.378124 115.04378L34.378124 123.63753L33.315624 123.63753ZM36.346874 116.26253L36.346874 115.04378L37.409374 115.04378L37.409374 116.26253L36.346874 116.26253ZM36.346874 123.63753L36.346874 117.41878L37.409374 117.41878L37.409374 123.63753L36.346874 123.63753ZM43.378124 123.63753L43.378124 122.85628Q42.784374 123.77815 41.64375 123.77815Q40.89375 123.77815 40.26875 123.3719Q39.64375 122.95003 39.3 122.21565Q38.95625 121.48128 38.95625 120.52815Q38.95625 119.60628 39.26875 118.84065Q39.58125 118.07503 40.20625 117.6844Q40.83125 117.27815 41.596874 117.27815Q42.159374 117.27815 42.596874 117.51253Q43.034374 117.7469 43.315624 118.1219L43.315624 115.04378L44.3625 115.04378L44.3625 123.63753L43.378124 123.63753ZM40.05 120.52815Q40.05 121.73128 40.55 122.32503Q41.05 122.90315 41.7375 122.90315Q42.425 122.90315 42.909374 122.34065Q43.39375 121.77815 43.39375 120.6219Q43.39375 119.34065 42.89375 118.7469Q42.409374 118.15315 41.690624 118.15315Q40.9875 118.15315 40.51875 118.73128Q40.05 119.29378 40.05 120.52815ZM50.409374 122.8719Q49.815624 123.3719 49.26875 123.57503Q48.7375 123.77815 48.1125 123.77815Q47.08125 123.77815 46.534374 123.27815Q45.9875 122.77815 45.9875 121.9969Q45.9875 121.54378 46.190624 121.16878Q46.39375 120.77815 46.7375 120.5594Q47.08125 120.32503 47.503124 120.21565Q47.8 120.1219 48.440624 120.04378Q49.70625 119.90315 50.315624 119.6844Q50.315624 119.46565 50.315624 119.41878Q50.315624 118.76253 50.01875 118.4969Q49.6125 118.15315 48.815624 118.15315Q48.08125 118.15315 47.721874 118.41878Q47.3625 118.66878 47.190624 119.32503L46.159374 119.1844Q46.3 118.52815 46.628124 118.1219Q46.95625 117.71565 47.565624 117.4969Q48.175 117.27815 48.971874 117.27815Q49.76875 117.27815 50.26875 117.46565Q50.76875 117.65315 51.003124 117.9344Q51.2375 118.21565 51.33125 118.65315Q51.378124 118.91878 51.378124 119.6219L51.378124 121.02815Q51.378124 122.4969 51.440624 122.88753Q51.51875 123.27815 51.721874 123.63753L50.6125 123.63753Q50.45625 123.3094 50.409374 122.8719ZM50.315624 120.51253Q49.7375 120.7469 48.596874 120.91878Q47.940624 121.01253 47.675 121.13753Q47.409374 121.2469 47.253124 121.46565Q47.1125 121.6844 47.1125 121.96565Q47.1125 122.38753 47.425 122.66878Q47.753124 122.95003 48.3625 122.95003Q48.971874 122.95003 49.440624 122.6844Q49.925 122.41878 50.14375 121.95003Q50.315624 121.59065 50.315624 120.90315L50.315624 120.51253ZM55.64375 122.70003L55.8 123.6219Q55.346874 123.71565 55.003124 123.71565Q54.425 123.71565 54.1125 123.54378Q53.8 123.35628 53.659374 123.0594Q53.534374 122.76253 53.534374 121.8094L53.534374 118.23128L52.76875 118.23128L52.76875 117.41878L53.534374 117.41878L53.534374 115.8719L54.58125 115.2469L54.58125 117.41878L55.64375 117.41878L55.64375 118.23128L54.58125 118.23128L54.58125 121.8719Q54.58125 122.32503 54.628124 122.45003Q54.690624 122.57503 54.815624 122.65315Q54.940624 122.73128 55.175 122.73128Q55.3625 122.73128 55.64375 122.70003ZM55.95625 120.52815Q55.95625 118.79378 56.909374 117.96565Q57.70625 117.27815 58.8625 117.27815Q60.14375 117.27815 60.95625 118.1219Q61.784374 118.95003 61.784374 120.4344Q61.784374 121.63753 61.425 122.32503Q61.065624 123.01253 60.3625 123.40315Q59.675 123.77815 58.8625 123.77815Q57.565624 123.77815 56.753124 122.95003Q55.95625 122.10628 55.95625 120.52815ZM57.034374 120.52815Q57.034374 121.71565 57.55 122.3094Q58.08125 122.90315 58.8625 122.90315Q59.659374 122.90315 60.175 122.3094Q60.690624 121.71565 60.690624 120.4969Q60.690624 119.34065 60.159374 118.7469Q59.64375 118.15315 58.8625 118.15315Q58.08125 118.15315 57.55 118.7469Q57.034374 119.32503 57.034374 120.52815ZM63.33125 123.63753L63.33125 117.41878L64.28438 117.41878L64.28438 118.35628Q64.64375 117.70003 64.94063 117.4969Q65.25313 117.27815 65.62813 117.27815Q66.15938 117.27815 66.70625 117.60628L66.34688 118.59065Q65.95625 118.35628 65.58125 118.35628Q65.22188 118.35628 64.94063 118.57503Q64.675 118.77815 64.56563 119.15315Q64.37813 119.71565 64.37813 120.3719L64.37813 123.63753L63.33125 123.63753ZM66.925 121.77815L67.95625 121.6219Q68.05 122.2469 68.44063 122.57503Q68.84688 122.90315 69.58125 122.90315Q70.3 122.90315 70.64375 122.6219Q71.00313 122.32503 71.00313 121.91878Q71.00313 121.5594 70.69063 121.35628Q70.47188 121.21565 69.6125 120.9969Q68.45625 120.70003 68.00313 120.4969Q67.56563 120.27815 67.33125 119.90315Q67.09688 119.52815 67.09688 119.0594Q67.09688 118.65315 67.28438 118.29378Q67.47188 117.9344 67.8 117.70003Q68.05 117.52815 68.47188 117.40315Q68.89375 117.27815 69.39375 117.27815Q70.1125 117.27815 70.65938 117.4969Q71.22188 117.70003 71.4875 118.0594Q71.75313 118.41878 71.84688 119.01253L70.81563 119.15315Q70.75313 118.6844 70.40938 118.41878Q70.08125 118.13753 69.45625 118.13753Q68.7375 118.13753 68.425 118.38753Q68.1125 118.6219 68.1125 118.95003Q68.1125 119.15315 68.2375 119.3094Q68.37813 119.48128 68.64375 119.59065Q68.8 119.65315 69.58125 119.85628Q70.70625 120.16878 71.14375 120.35628Q71.58125 120.54378 71.83125 120.90315Q72.08125 121.26253 72.08125 121.8094Q72.08125 122.34065 71.76875 122.8094Q71.47188 123.26253 70.89375 123.52815Q70.31563 123.77815 69.58125 123.77815Q68.3625 123.77815 67.72188 123.27815Q67.09688 122.76253 66.925 121.77815Z" fill-rule="nonzero"/><path fill="#9e9e9e" d="M19.05 138.3719L20.1125 138.23128Q20.284374 139.1219 20.721874 139.52815Q21.159374 139.91878 21.784374 139.91878Q22.534374 139.91878 23.05 139.40315Q23.565624 138.88753 23.565624 138.1219Q23.565624 137.40315 23.08125 136.9344Q22.6125 136.45003 21.878124 136.45003Q21.58125 136.45003 21.128124 136.57503L21.253124 135.63753Q21.3625 135.65315 21.425 135.65315Q22.096874 135.65315 22.628124 135.3094Q23.175 134.95003 23.175 134.21565Q23.175 133.63753 22.784374 133.26253Q22.39375 132.8719 21.76875 132.8719Q21.159374 132.8719 20.7375 133.26253Q20.33125 133.65315 20.221874 134.41878L19.159374 134.23128Q19.346874 133.1844 20.034374 132.60628Q20.721874 132.01253 21.7375 132.01253Q22.440624 132.01253 23.034374 132.32503Q23.628124 132.6219 23.940624 133.13753Q24.253124 133.65315 24.253124 134.2469Q24.253124 134.79378 23.95625 135.26253Q23.659374 135.71565 23.08125 135.98128Q23.83125 136.15315 24.253124 136.71565Q24.675 137.26253 24.675 138.10628Q24.675 139.23128 23.846874 140.01253Q23.034374 140.79378 21.784374 140.79378Q20.659374 140.79378 19.909374 140.1219Q19.159374 139.4344 19.05 138.3719ZM27.675 135.98128Q27.01875 135.73128 26.690624 135.29378Q26.378124 134.84065 26.378124 134.23128Q26.378124 133.29378 27.05 132.65315Q27.7375 132.01253 28.846874 132.01253Q29.971874 132.01253 30.659374 132.66878Q31.346874 133.32503 31.346874 134.26253Q31.346874 134.85628 31.034374 135.29378Q30.721874 135.73128 30.08125 135.98128Q30.878124 136.23128 31.284374 136.8094Q31.690624 137.38753 31.690624 138.1844Q31.690624 139.27815 30.909374 140.02815Q30.14375 140.77815 28.8625 140.77815Q27.596874 140.77815 26.815624 140.02815Q26.034374 139.27815 26.034374 138.15315Q26.034374 137.3094 26.45625 136.7469Q26.89375 136.1844 27.675 135.98128ZM27.45625 134.1844Q27.45625 134.79378 27.846874 135.1844Q28.253124 135.57503 28.878124 135.57503Q29.4875 135.57503 29.878124 135.20003Q30.26875 134.8094 30.26875 134.2469Q30.26875 133.66878 29.8625 133.27815Q29.45625 132.8719 28.8625 132.8719Q28.253124 132.8719 27.846874 133.26253Q27.45625 133.65315 27.45625 134.1844ZM27.128124 138.15315Q27.128124 138.60628 27.33125 139.02815Q27.55 139.45003 27.971874 139.6844Q28.39375 139.91878 28.878124 139.91878Q29.628124 139.91878 30.1125 139.4344Q30.6125 138.95003 30.6125 138.20003Q30.6125 137.4344 30.1125 136.9344Q29.6125 136.4344 28.846874 136.4344Q28.096874 136.4344 27.6125 136.9344Q27.128124 137.41878 27.128124 138.15315ZM33.64375 140.63753L33.64375 139.4344L34.846874 139.4344L34.846874 140.63753L33.64375 140.63753ZM41.596874 139.6219L41.596874 140.63753L35.909374 140.63753Q35.909374 140.26253 36.034374 139.90315Q36.253124 139.32503 36.721874 138.76253Q37.20625 138.20003 38.1125 137.46565Q39.51875 136.3094 40.003124 135.63753Q40.503124 134.96565 40.503124 134.3719Q40.503124 133.7469 40.05 133.32503Q39.596874 132.88753 38.878124 132.88753Q38.1125 132.88753 37.659374 133.34065Q37.20625 133.79378 37.190624 134.60628L36.1125 134.4969Q36.221874 133.27815 36.940624 132.65315Q37.675 132.01253 38.909374 132.01253Q40.14375 132.01253 40.8625 132.70003Q41.58125 133.38753 41.58125 134.40315Q41.58125 134.91878 41.3625 135.41878Q41.159374 135.90315 40.659374 136.46565Q40.175 137.01253 39.05 137.96565Q38.096874 138.76253 37.815624 139.0594Q37.55 139.34065 37.378124 139.6219L41.596874 139.6219ZM43.253124 134.10628Q43.253124 133.1844 43.70625 132.54378Q44.175 131.90315 45.05 131.90315Q45.8625 131.90315 46.39375 132.48128Q46.925 133.0594 46.925 134.16878Q46.925 135.26253 46.378124 135.85628Q45.846874 136.4344 45.065624 136.4344Q44.284374 136.4344 43.76875 135.85628Q43.253124 135.27815 43.253124 134.10628ZM45.08125 132.6219Q44.690624 132.6219 44.425 132.96565Q44.175 133.3094 44.175 134.21565Q44.175 135.04378 44.425 135.38753Q44.690624 135.71565 45.08125 135.71565Q45.4875 135.71565 45.7375 135.3719Q46.003124 135.02815 46.003124 134.13753Q46.003124 133.29378 45.7375 132.96565Q45.471874 132.6219 45.08125 132.6219ZM45.08125 140.95003L49.784374 131.90315L50.64375 131.90315L45.95625 140.95003L45.08125 140.95003ZM48.8 138.6219Q48.8 137.70003 49.253124 137.0594Q49.721874 136.41878 50.6125 136.41878Q51.425 136.41878 51.95625 136.9969Q52.4875 137.5594 52.4875 138.6844Q52.4875 139.77815 51.940624 140.3719Q51.409374 140.95003 50.6125 140.95003Q49.846874 140.95003 49.315624 140.3719Q48.8 139.79378 48.8 138.6219ZM50.64375 137.13753Q50.2375 137.13753 49.971874 137.48128Q49.721874 137.82503 49.721874 138.73128Q49.721874 139.54378 49.9875 139.88753Q50.253124 140.23128 50.64375 140.23128Q51.034374 140.23128 51.3 139.88753Q51.565624 139.54378 51.565624 138.63753Q51.565624 137.8094 51.3 137.48128Q51.034374 137.13753 50.64375 137.13753Z" fill-rule="nonzero"/><path stroke="#757575" stroke-width="1.0" stroke-linecap="butt" d="M18.55 128.13753L127.05 128.13753L152.13419 128.13753" fill-rule="nonzero"/><path fill="#9e9e9e" d="M154.13419 128.13753C154.13419 127.03296 153.23875 126.13753 152.13419 126.13753C151.02962 126.13753 150.13419 127.03296 150.13419 128.13753C150.13419 129.2421 151.02962 130.13753 152.13419 130.13753C153.23875 130.13753 154.13419 129.2421 154.13419 128.13753" fill-rule="nonzero"/><path fill="#1a1a1a" d="M19.51875 270.45L19.51875 261.85626L20.64375 261.85626L20.64375 265.3875L25.1125 265.3875L25.1125 261.85626L26.253124 261.85626L26.253124 270.45L25.1125 270.45L25.1125 266.40314L20.64375 266.40314L20.64375 270.45L19.51875 270.45ZM28.4875 270.45L28.4875 261.85626L32.3 261.85626Q33.45625 261.85626 34.05 262.09064Q34.64375 262.325 35.003124 262.91876Q35.3625 263.4969 35.3625 264.2Q35.3625 265.1219 34.76875 265.7469Q34.175 266.3719 32.940624 266.54376Q33.39375 266.7625 33.628124 266.96564Q34.128124 267.41876 34.565624 268.10626L36.065624 270.45L34.628124 270.45L33.503124 268.66876Q33.003124 267.8875 32.675 267.48126Q32.3625 267.075 32.096874 266.91876Q31.846874 266.7469 31.58125 266.66876Q31.39375 266.6375 30.95625 266.6375L29.628124 266.6375L29.628124 270.45L28.4875 270.45ZM29.628124 265.65314L32.08125 265.65314Q32.846874 265.65314 33.284374 265.4969Q33.7375 265.325 33.95625 264.98126Q34.190624 264.6219 34.190624 264.2Q34.190624 263.59064 33.7375 263.2Q33.3 262.8094 32.346874 262.8094L29.628124 262.8094L29.628124 265.65314Z" fill-rule="nonzero"/><path fill="#9e9e9e" d="M22.425 287.45L22.425 285.3875L18.70625 285.3875L18.70625 284.41876L22.628124 278.85626L23.4875 278.85626L23.4875 284.41876L24.64375 284.41876L24.64375 285.3875L23.4875 285.3875L23.4875 287.45L22.425 287.45ZM22.425 284.41876L22.425 280.5594L19.7375 284.41876L22.425 284.41876ZM26.64375 287.45L26.64375 286.2469L27.846874 286.2469L27.846874 287.45L26.64375 287.45ZM33.01875 287.45L31.971874 287.45L31.971874 280.73126Q31.58125 281.09064 30.95625 281.46564Q30.346874 281.825 29.8625 281.9969L29.8625 280.98126Q30.7375 280.5594 31.39375 279.98126Q32.065624 279.3875 32.346874 278.825L33.01875 278.825L33.01875 287.45ZM36.253124 280.91876Q36.253124 279.9969 36.70625 279.35626Q37.175 278.71564 38.05 278.71564Q38.8625 278.71564 39.39375 279.29376Q39.925 279.8719 39.925 280.98126Q39.925 282.075 39.378124 282.66876Q38.846874 283.2469 38.065624 283.2469Q37.284374 283.2469 36.76875 282.66876Q36.253124 282.09064 36.253124 280.91876ZM38.08125 279.4344Q37.690624 279.4344 37.425 279.77814Q37.175 280.1219 37.175 281.02814Q37.175 281.85626 37.425 282.2Q37.690624 282.52814 38.08125 282.52814Q38.4875 282.52814 38.7375 282.1844Q39.003124 281.84064 39.003124 280.95Q39.003124 280.10626 38.7375 279.77814Q38.471874 279.4344 38.08125 279.4344ZM38.08125 287.7625L42.784374 278.71564L43.64375 278.71564L38.95625 287.7625L38.08125 287.7625ZM41.8 285.4344Q41.8 284.5125 42.253124 283.8719Q42.721874 283.23126 43.6125 283.23126Q44.425 283.23126 44.95625 283.8094Q45.4875 284.3719 45.4875 285.4969Q45.4875 286.59064 44.940624 287.1844Q44.409374 287.7625 43.6125 287.7625Q42.846874 287.7625 42.315624 287.1844Q41.8 286.60626 41.8 285.4344ZM43.64375 283.95Q43.2375 283.95 42.971874 284.29376Q42.721874 284.6375 42.721874 285.54376Q42.721874 286.35626 42.9875 286.7Q43.253124 287.04376 43.64375 287.04376Q44.034374 287.04376 44.3 286.7Q44.565624 286.35626 44.565624 285.45Q44.565624 284.6219 44.3 284.29376Q44.034374 283.95 43.64375 283.95Z" fill-rule="nonzero"/><path stroke="#757575" stroke-width="1.0" stroke-linecap="butt" d="M18.55 274.95L127.05 274.95L209.08743 315.4602" fill-rule="nonzero"/><path fill="#9e9e9e" d="M211.08743 315.4602C211.08743 314.35565 210.192 313.4602 209.08743 313.4602C207.98286 313.4602 207.08743 314.35565 207.08743 315.4602C207.08743 316.5648 207.98286 317.4602 209.08743 317.4602C210.192 317.4602 211.08743 316.5648 211.08743 315.4602" fill-rule="nonzero"/><path fill="#1a1a1a" d="M25.6125 298.4344L26.7375 298.73126Q26.378124 300.1219 25.45625 300.85626Q24.534374 301.59064 23.190624 301.59064Q21.8 301.59064 20.925 301.02814Q20.05 300.46564 19.596874 299.40314Q19.14375 298.325 19.14375 297.09064Q19.14375 295.7469 19.659374 294.7469Q20.175 293.7469 21.1125 293.23126Q22.065624 292.71564 23.20625 292.71564Q24.4875 292.71564 25.3625 293.3719Q26.253124 294.02814 26.596874 295.21564L25.471874 295.48126Q25.175 294.54376 24.596874 294.1219Q24.034374 293.6844 23.175 293.6844Q22.190624 293.6844 21.51875 294.16876Q20.8625 294.6375 20.58125 295.4344Q20.315624 296.23126 20.315624 297.09064Q20.315624 298.1844 20.628124 298.9969Q20.95625 299.8094 21.628124 300.21564Q22.3 300.6219 23.096874 300.6219Q24.05 300.6219 24.70625 300.075Q25.378124 299.52814 25.6125 298.4344ZM27.95625 298.34064Q27.95625 296.60626 28.909374 295.77814Q29.70625 295.09064 30.8625 295.09064Q32.14375 295.09064 32.95625 295.9344Q33.784374 296.7625 33.784374 298.2469Q33.784374 299.45 33.425 300.1375Q33.065624 300.825 32.3625 301.21564Q31.675 301.59064 30.8625 301.59064Q29.565624 301.59064 28.753124 300.7625Q27.95625 299.91876 27.95625 298.34064ZM29.034374 298.34064Q29.034374 299.52814 29.55 300.1219Q30.08125 300.71564 30.8625 300.71564Q31.659374 300.71564 32.175 300.1219Q32.690624 299.52814 32.690624 298.3094Q32.690624 297.15314 32.159374 296.5594Q31.64375 295.96564 30.8625 295.96564Q30.08125 295.96564 29.55 296.5594Q29.034374 297.1375 29.034374 298.34064ZM35.346874 301.45L35.346874 295.23126L36.284374 295.23126L36.284374 296.10626Q36.971874 295.09064 38.26875 295.09064Q38.83125 295.09064 39.3 295.29376Q39.784374 295.4969 40.01875 295.825Q40.253124 296.15314 40.346874 296.59064Q40.39375 296.8875 40.39375 297.6219L40.39375 301.45L39.346874 301.45L39.346874 297.66876Q39.346874 297.0125 39.221874 296.7Q39.096874 296.3875 38.784374 296.2Q38.471874 295.9969 38.05 295.9969Q37.378124 295.9969 36.878124 296.4344Q36.39375 296.85626 36.39375 298.04376L36.39375 301.45L35.346874 301.45ZM44.64375 300.5125L44.8 301.4344Q44.346874 301.52814 44.003124 301.52814Q43.425 301.52814 43.1125 301.35626Q42.8 301.16876 42.659374 300.8719Q42.534374 300.575 42.534374 299.6219L42.534374 296.04376L41.76875 296.04376L41.76875 295.23126L42.534374 295.23126L42.534374 293.6844L43.58125 293.0594L43.58125 295.23126L44.64375 295.23126L44.64375 296.04376L43.58125 296.04376L43.58125 299.6844Q43.58125 300.1375 43.628124 300.2625Q43.690624 300.3875 43.815624 300.46564Q43.940624 300.54376 44.175 300.54376Q44.3625 300.54376 44.64375 300.5125ZM49.596874 299.45L50.690624 299.575Q50.440624 300.52814 49.7375 301.0594Q49.034374 301.59064 47.95625 301.59064Q46.596874 301.59064 45.784374 300.7469Q44.9875 299.90314 44.9875 298.3875Q44.9875 296.825 45.8 295.96564Q46.6125 295.09064 47.89375 295.09064Q49.14375 295.09064 49.925 295.9344Q50.721874 296.77814 50.721874 298.325Q50.721874 298.41876 50.721874 298.60626L46.08125 298.60626Q46.14375 299.6375 46.659374 300.1844Q47.175 300.71564 47.95625 300.71564Q48.534374 300.71564 48.940624 300.41876Q49.3625 300.10626 49.596874 299.45ZM46.14375 297.7469L49.6125 297.7469Q49.55 296.95 49.221874 296.5594Q48.70625 295.95 47.909374 295.95Q47.175 295.95 46.675 296.4344Q46.190624 296.91876 46.14375 297.7469ZM52.346874 301.45L52.346874 295.23126L53.284374 295.23126L53.284374 296.10626Q53.971874 295.09064 55.26875 295.09064Q55.83125 295.09064 56.3 295.29376Q56.784374 295.4969 57.01875 295.825Q57.253124 296.15314 57.346874 296.59064Q57.39375 296.8875 57.39375 297.6219L57.39375 301.45L56.346874 301.45L56.346874 297.66876Q56.346874 297.0125 56.221874 296.7Q56.096874 296.3875 55.784374 296.2Q55.471874 295.9969 55.05 295.9969Q54.378124 295.9969 53.878124 296.4344Q53.39375 296.85626 53.39375 298.04376L53.39375 301.45L52.346874 301.45ZM61.64375 300.5125L61.8 301.4344Q61.346874 301.52814 61.003124 301.52814Q60.425 301.52814 60.1125 301.35626Q59.8 301.16876 59.659374 300.8719Q59.534374 300.575 59.534374 299.6219L59.534374 296.04376L58.76875 296.04376L58.76875 295.23126L59.534374 295.23126L59.534374 293.6844L60.58125 293.0594L60.58125 295.23126L61.64375 295.23126L61.64375 296.04376L60.58125 296.04376L60.58125 299.6844Q60.58125 300.1375 60.628124 300.2625Q60.690624 300.3875 60.815624 300.46564Q60.940624 300.54376 61.175 300.54376Q61.3625 300.54376 61.64375 300.5125Z" fill-rule="nonzero"/><path fill="#9e9e9e" d="M19.05 316.1844L20.1125 316.04376Q20.284374 316.9344 20.721874 317.34064Q21.159374 317.73126 21.784374 317.73126Q22.534374 317.73126 23.05 317.21564Q23.565624 316.7 23.565624 315.9344Q23.565624 315.21564 23.08125 314.7469Q22.6125 314.2625 21.878124 314.2625Q21.58125 314.2625 21.128124 314.3875L21.253124 313.45Q21.3625 313.46564 21.425 313.46564Q22.096874 313.46564 22.628124 313.1219Q23.175 312.7625 23.175 312.02814Q23.175 311.45 22.784374 311.075Q22.39375 310.6844 21.76875 310.6844Q21.159374 310.6844 20.7375 311.075Q20.33125 311.46564 20.221874 312.23126L19.159374 312.04376Q19.346874 310.9969 20.034374 310.41876Q20.721874 309.825 21.7375 309.825Q22.440624 309.825 23.034374 310.1375Q23.628124 310.4344 23.940624 310.95Q24.253124 311.46564 24.253124 312.0594Q24.253124 312.60626 23.95625 313.075Q23.659374 313.52814 23.08125 313.79376Q23.83125 313.96564 24.253124 314.52814Q24.675 315.075 24.675 315.91876Q24.675 317.04376 23.846874 317.825Q23.034374 318.60626 21.784374 318.60626Q20.659374 318.60626 19.909374 317.9344Q19.159374 317.2469 19.05 316.1844ZM26.64375 318.45L26.64375 317.2469L27.846874 317.2469L27.846874 318.45L26.64375 318.45ZM29.05 316.2L30.159374 316.10626Q30.284374 316.91876 30.721874 317.325Q31.175 317.73126 31.815624 317.73126Q32.565624 317.73126 33.096874 317.15314Q33.628124 316.575 33.628124 315.6375Q33.628124 314.73126 33.1125 314.21564Q32.6125 313.6844 31.784374 313.6844Q31.284374 313.6844 30.8625 313.91876Q30.45625 314.15314 30.221874 314.5125L29.2375 314.3875L30.065624 309.98126L34.346874 309.98126L34.346874 310.98126L30.909374 310.98126L30.45625 313.29376Q31.221874 312.7469 32.065624 312.7469Q33.190624 312.7469 33.95625 313.52814Q34.7375 314.3094 34.7375 315.54376Q34.7375 316.7 34.065624 317.5594Q33.2375 318.59064 31.815624 318.59064Q30.64375 318.59064 29.89375 317.9344Q29.159374 317.27814 29.05 316.2ZM36.253124 311.91876Q36.253124 310.9969 36.70625 310.35626Q37.175 309.71564 38.05 309.71564Q38.8625 309.71564 39.39375 310.29376Q39.925 310.8719 39.925 311.98126Q39.925 313.075 39.378124 313.66876Q38.846874 314.2469 38.065624 314.2469Q37.284374 314.2469 36.76875 313.66876Q36.253124 313.09064 36.253124 311.91876ZM38.08125 310.4344Q37.690624 310.4344 37.425 310.77814Q37.175 311.1219 37.175 312.02814Q37.175 312.85626 37.425 313.2Q37.690624 313.52814 38.08125 313.52814Q38.4875 313.52814 38.7375 313.1844Q39.003124 312.84064 39.003124 311.95Q39.003124 311.10626 38.7375 310.77814Q38.471874 310.4344 38.08125 310.4344ZM38.08125 318.7625L42.784374 309.71564L43.64375 309.71564L38.95625 318.7625L38.08125 318.7625ZM41.8 316.4344Q41.8 315.5125 42.253124 314.8719Q42.721874 314.23126 43.6125 314.23126Q44.425 314.23126 44.95625 314.8094Q45.4875 315.3719 45.4875 316.4969Q45.4875 317.59064 44.940624 318.1844Q44.409374 318.7625 43.6125 318.7625Q42.846874 318.7625 42.315624 318.1844Q41.8 317.60626 41.8 316.4344ZM43.64375 314.95Q43.2375 314.95 42.971874 315.29376Q42.721874 315.6375 42.721874 316.54376Q42.721874 317.35626 42.9875 317.7Q43.253124 318.04376 43.64375 318.04376Q44.034374 318.04376 44.3 317.7Q44.565624 317.35626 44.565624 316.45Q44.565624 315.6219 44.3 315.29376Q44.034374 314.95 43.64375 314.95Z" fill-rule="nonzero"/><path stroke="#757575" stroke-width="1.0" stroke-linecap="butt" d="M18.55 305.95L127.05 305.95L242.74818 333.4087" fill-rule="nonzero"/><path fill="#9e9e9e" d="M244.74818 333.4087C244.74818 332.30414 243.85275 331.4087 242.74818 331.4087C241.64362 331.4087 240.74818 332.30414 240.74818 333.4087C240.74818 334.51328 241.64362 335.4087 242.74818 335.4087C243.85275 335.4087 244.74818 334.51328 244.74818 333.4087" fill-rule="nonzero"/><path fill="#1a1a1a" d="M19.440624 332.45L19.440624 323.85626L21.159374 323.85626L23.190624 329.9344Q23.471874 330.79376 23.596874 331.21564Q23.7375 330.7469 24.05 329.84064L26.1125 323.85626L27.64375 323.85626L27.64375 332.45L26.55 332.45L26.55 325.2625L24.05 332.45L23.01875 332.45L20.534374 325.1375L20.534374 332.45L19.440624 332.45ZM29.971874 332.45L27.690624 323.85626L28.8625 323.85626L30.175 329.4969Q30.378124 330.3719 30.534374 331.2469Q30.8625 329.8719 30.925 329.65314L32.55 323.85626L33.925 323.85626L35.159374 328.2Q35.6125 329.825 35.83125 331.2469Q35.9875 330.4344 36.253124 329.3719L37.596874 323.85626L38.7375 323.85626L36.39375 332.45L35.284374 332.45L33.4875 325.90314Q33.253124 325.09064 33.20625 324.90314Q33.08125 325.48126 32.95625 325.90314L31.14375 332.45L29.971874 332.45ZM43.503124 329.075L43.503124 328.075L47.128124 328.0594L47.128124 331.2469Q46.3 331.91876 45.409374 332.2625Q44.51875 332.59064 43.58125 332.59064Q42.315624 332.59064 41.26875 332.0594Q40.2375 331.5125 39.70625 330.4969Q39.190624 329.46564 39.190624 328.2Q39.190624 326.9344 39.70625 325.85626Q40.2375 324.7625 41.221874 324.2469Q42.20625 323.71564 43.4875 323.71564Q44.425 323.71564 45.175 324.0125Q45.925 324.3094 46.346874 324.85626Q46.784374 325.3875 47.003124 326.2625L45.9875 326.54376Q45.784374 325.8875 45.4875 325.5125Q45.20625 325.1375 44.675 324.91876Q44.14375 324.6844 43.503124 324.6844Q42.721874 324.6844 42.14375 324.91876Q41.58125 325.15314 41.221874 325.54376Q40.878124 325.9344 40.690624 326.40314Q40.3625 327.2 40.3625 328.1219Q40.3625 329.27814 40.753124 330.0594Q41.159374 330.825 41.909374 331.2Q42.659374 331.575 43.51875 331.575Q44.253124 331.575 44.95625 331.29376Q45.659374 330.9969 46.01875 330.6844L46.01875 329.075L43.503124 329.075Z" fill-rule="nonzero"/><path fill="#9e9e9e" d="M24.51875 342.96564L23.471874 343.04376Q23.33125 342.41876 23.08125 342.1375Q22.64375 341.6844 22.01875 341.6844Q21.51875 341.6844 21.128124 341.96564Q20.64375 342.34064 20.346874 343.04376Q20.065624 343.73126 20.05 345.0125Q20.425 344.4344 20.971874 344.15314Q21.534374 343.8719 22.14375 343.8719Q23.190624 343.8719 23.925 344.65314Q24.675 345.4344 24.675 346.65314Q24.675 347.46564 24.315624 348.16876Q23.971874 348.85626 23.3625 349.23126Q22.753124 349.59064 21.9875 349.59064Q20.659374 349.59064 19.83125 348.6219Q19.003124 347.65314 19.003124 345.4344Q19.003124 342.9344 19.925 341.8094Q20.721874 340.825 22.08125 340.825Q23.096874 340.825 23.7375 341.40314Q24.39375 341.96564 24.51875 342.96564ZM20.221874 346.66876Q20.221874 347.21564 20.440624 347.71564Q20.675 348.2 21.08125 348.46564Q21.503124 348.73126 21.971874 348.73126Q22.628124 348.73126 23.1125 348.2Q23.596874 347.65314 23.596874 346.73126Q23.596874 345.84064 23.1125 345.325Q22.64375 344.8094 21.925 344.8094Q21.20625 344.8094 20.70625 345.325Q20.221874 345.84064 20.221874 346.66876ZM26.64375 349.45L26.64375 348.2469L27.846874 348.2469L27.846874 349.45L26.64375 349.45ZM29.05 345.21564Q29.05 343.6844 29.3625 342.7625Q29.675 341.825 30.284374 341.325Q30.909374 340.825 31.846874 340.825Q32.534374 340.825 33.05 341.10626Q33.58125 341.3875 33.925 341.91876Q34.26875 342.4344 34.45625 343.1844Q34.64375 343.9344 34.64375 345.21564Q34.64375 346.73126 34.33125 347.65314Q34.034374 348.575 33.409374 349.09064Q32.8 349.59064 31.846874 349.59064Q30.6125 349.59064 29.89375 348.7Q29.05 347.6375 29.05 345.21564ZM30.128124 345.21564Q30.128124 347.325 30.628124 348.02814Q31.128124 348.73126 31.846874 348.73126Q32.58125 348.73126 33.065624 348.02814Q33.565624 347.325 33.565624 345.21564Q33.565624 343.09064 33.065624 342.40314Q32.58125 341.7 31.83125 341.7Q31.1125 341.7 30.675 342.3094Q30.128124 343.09064 30.128124 345.21564ZM36.253124 342.91876Q36.253124 341.9969 36.70625 341.35626Q37.175 340.71564 38.05 340.71564Q38.8625 340.71564 39.39375 341.29376Q39.925 341.8719 39.925 342.98126Q39.925 344.075 39.378124 344.66876Q38.846874 345.2469 38.065624 345.2469Q37.284374 345.2469 36.76875 344.66876Q36.253124 344.09064 36.253124 342.91876ZM38.08125 341.4344Q37.690624 341.4344 37.425 341.77814Q37.175 342.1219 37.175 343.02814Q37.175 343.85626 37.425 344.2Q37.690624 344.52814 38.08125 344.52814Q38.4875 344.52814 38.7375 344.1844Q39.003124 343.84064 39.003124 342.95Q39.003124 342.10626 38.7375 341.77814Q38.471874 341.4344 38.08125 341.4344ZM38.08125 349.7625L42.784374 340.71564L43.64375 340.71564L38.95625 349.7625L38.08125 349.7625ZM41.8 347.4344Q41.8 346.5125 42.253124 345.8719Q42.721874 345.23126 43.6125 345.23126Q44.425 345.23126 44.95625 345.8094Q45.4875 346.3719 45.4875 347.4969Q45.4875 348.59064 44.940624 349.1844Q44.409374 349.7625 43.6125 349.7625Q42.846874 349.7625 42.315624 349.1844Q41.8 348.60626 41.8 347.4344ZM43.64375 345.95Q43.2375 345.95 42.971874 346.29376Q42.721874 346.6375 42.721874 347.54376Q42.721874 348.35626 42.9875 348.7Q43.253124 349.04376 43.64375 349.04376Q44.034374 349.04376 44.3 348.7Q44.565624 348.35626 44.565624 347.45Q44.565624 346.6219 44.3 346.29376Q44.034374 345.95 43.64375 345.95Z" fill-rule="nonzero"/><path stroke="#757575" stroke-width="1.0" stroke-linecap="butt" d="M18.55 336.95L127.05 336.95L289.2358 343.7368" fill-rule="nonzero"/><path fill="#9e9e9e" d="M291.2358 343.7368C291.2358 342.63223 290.34036 341.7368 289.2358 341.7368C288.13123 341.7368 287.2358 342.63223 287.2358 343.7368C287.2358 344.84137 288.13123 345.7368 289.2358 345.7368C290.34036 345.7368 291.2358 344.84137 291.2358 343.7368" fill-rule="nonzero"/><path fill="#1a1a1a" d="M546.5125 48.694023L547.6375 48.9909Q547.27814 50.381523 546.35626 51.1159Q545.4344 51.850273 544.09064 51.850273Q542.7 51.850273 541.825 51.287773Q540.95 50.725273 540.4969 49.662773Q540.04376 48.58465 540.04376 47.350273Q540.04376 46.006523 540.5594 45.006523Q541.075 44.006523 542.0125 43.4909Q542.96564 42.975273 544.10626 42.975273Q545.3875 42.975273 546.2625 43.631523Q547.15314 44.287773 547.4969 45.475273L546.3719 45.7409Q546.075 44.8034 545.4969 44.381523Q544.9344 43.944023 544.075 43.944023Q543.09064 43.944023 542.41876 44.4284Q541.7625 44.89715 541.48126 45.694023Q541.21564 46.4909 541.21564 47.350273Q541.21564 48.444023 541.52814 49.256523Q541.85626 50.069023 542.52814 50.475273Q543.2 50.881523 543.9969 50.881523Q544.95 50.881523 545.60626 50.33465Q546.27814 49.787773 546.5125 48.694023ZM548.85626 48.600273Q548.85626 46.8659 549.8094 46.037773Q550.60626 45.350273 551.7625 45.350273Q553.04376 45.350273 553.85626 46.194023Q554.6844 47.02215 554.6844 48.506523Q554.6844 49.70965 554.325 50.39715Q553.96564 51.08465 553.2625 51.475273Q552.575 51.850273 551.7625 51.850273Q550.46564 51.850273 549.65314 51.02215Q548.85626 50.1784 548.85626 48.600273ZM549.9344 48.600273Q549.9344 49.787773 550.45 50.381523Q550.98126 50.975273 551.7625 50.975273Q552.5594 50.975273 553.075 50.381523Q553.59064 49.787773 553.59064 48.569023Q553.59064 47.412773 553.0594 46.819023Q552.54376 46.225273 551.7625 46.225273Q550.98126 46.225273 550.45 46.819023Q549.9344 47.39715 549.9344 48.600273ZM560.325 51.70965L560.325 50.787773Q559.59064 51.850273 558.34064 51.850273Q557.79376 51.850273 557.3094 51.64715Q556.84064 51.4284 556.60626 51.1159Q556.3719 50.787773 556.27814 50.319023Q556.21564 50.02215 556.21564 49.33465L556.21564 45.4909L557.27814 45.4909L557.27814 48.944023Q557.27814 49.756523 557.34064 50.0534Q557.4344 50.45965 557.7469 50.70965Q558.075 50.944023 558.5594 50.944023Q559.02814 50.944023 559.4344 50.70965Q559.85626 50.45965 560.02814 50.037773Q560.21564 49.6159 560.21564 48.819023L560.21564 45.4909L561.2625 45.4909L561.2625 51.70965L560.325 51.70965ZM563.2469 51.70965L563.2469 45.4909L564.1844 45.4909L564.1844 46.3659Q564.8719 45.350273 566.16876 45.350273Q566.73126 45.350273 567.2 45.5534Q567.6844 45.756523 567.91876 46.08465Q568.15314 46.412773 568.2469 46.850273Q568.29376 47.14715 568.29376 47.881523L568.29376 51.70965L567.2469 51.70965L567.2469 47.9284Q567.2469 47.27215 567.1219 46.95965Q566.9969 46.64715 566.6844 46.45965Q566.3719 46.256523 565.95 46.256523Q565.27814 46.256523 564.77814 46.694023Q564.29376 47.1159 564.29376 48.3034L564.29376 51.70965L563.2469 51.70965ZM574.3094 49.4284L575.34064 49.569023Q575.16876 50.631523 574.46564 51.2409Q573.7625 51.850273 572.7469 51.850273Q571.46564 51.850273 570.6844 51.02215Q569.91876 50.1784 569.91876 48.6159Q569.91876 47.6159 570.2469 46.8659Q570.59064 46.100273 571.2625 45.725273Q571.95 45.350273 572.7625 45.350273Q573.7625 45.350273 574.40314 45.8659Q575.0594 46.3659 575.2469 47.319023L574.21564 47.475273Q574.075 46.850273 573.7 46.537773Q573.325 46.20965 572.79376 46.20965Q571.9969 46.20965 571.4969 46.787773Q570.9969 47.350273 570.9969 48.58465Q570.9969 49.850273 571.48126 50.412773Q571.96564 50.975273 572.73126 50.975273Q573.35626 50.975273 573.7625 50.600273Q574.1844 50.225273 574.3094 49.4284ZM576.2469 44.33465L576.2469 43.1159L577.3094 43.1159L577.3094 44.33465L576.2469 44.33465ZM576.2469 51.70965L576.2469 45.4909L577.3094 45.4909L577.3094 51.70965L576.2469 51.70965ZM579.21564 51.70965L579.21564 43.1159L580.27814 43.1159L580.27814 51.70965L579.21564 51.70965Z" fill-rule="nonzero"/><path fill="#9e9e9e" d="M550.91876 68.70965L549.8719 68.70965L549.8719 61.9909Q549.48126 62.350273 548.85626 62.725273Q548.2469 63.08465 547.7625 63.256523L547.7625 62.2409Q548.6375 61.819023 549.29376 61.2409Q549.96564 60.64715 550.2469 60.08465L550.91876 60.08465L550.91876 68.70965ZM554.10626 66.72527L555.1219 66.63152Q555.2469 67.35027 555.60626 67.6784Q555.98126 67.9909 556.54376 67.9909Q557.02814 67.9909 557.3875 67.77215Q557.7625 67.53777 557.9969 67.1784Q558.23126 66.8034 558.3875 66.1784Q558.54376 65.53777 558.54376 64.88152Q558.54376 64.8034 558.54376 64.66277Q558.23126 65.16277 557.6844 65.4909Q557.1375 65.8034 556.4969 65.8034Q555.41876 65.8034 554.6844 65.03777Q553.95 64.25652 553.95 62.9909Q553.95 61.6784 554.71564 60.881523Q555.4969 60.08465 556.65314 60.08465Q557.48126 60.08465 558.16876 60.537773Q558.8719 60.9909 559.23126 61.83465Q559.59064 62.662773 559.59064 64.2409Q559.59064 65.88152 559.23126 66.8659Q558.8875 67.83465 558.16876 68.35027Q557.46564 68.85027 556.52814 68.85027Q555.5125 68.85027 554.8719 68.3034Q554.23126 67.7409 554.10626 66.72527ZM558.41876 62.9284Q558.41876 62.02215 557.9344 61.4909Q557.46564 60.95965 556.77814 60.95965Q556.075 60.95965 555.54376 61.537773Q555.02814 62.100273 555.02814 63.02215Q555.02814 63.83465 555.52814 64.35027Q556.02814 64.8659 556.7469 64.8659Q557.48126 64.8659 557.95 64.35027Q558.41876 63.83465 558.41876 62.9284ZM561.54376 68.70965L561.54376 67.50652L562.7469 67.50652L562.7469 68.70965L561.54376 68.70965ZM564.0125 61.2409L564.0125 60.225273L569.575 60.225273L569.575 61.0534Q568.7625 61.9284 567.95 63.381523Q567.15314 64.81902 566.71564 66.35027Q566.3875 67.4284 566.3094 68.70965L565.21564 68.70965Q565.23126 67.69402 565.60626 66.25652Q565.9969 64.81902 566.7 63.4909Q567.41876 62.162773 568.23126 61.2409L564.0125 61.2409ZM571.15314 62.1784Q571.15314 61.256523 571.60626 60.6159Q572.075 59.975273 572.95 59.975273Q573.7625 59.975273 574.29376 60.5534Q574.825 61.131523 574.825 62.2409Q574.825 63.33465 574.27814 63.9284Q573.7469 64.50652 572.96564 64.50652Q572.1844 64.50652 571.66876 63.9284Q571.15314 63.350273 571.15314 62.1784ZM572.98126 60.694023Q572.59064 60.694023 572.325 61.037773Q572.075 61.381523 572.075 62.287773Q572.075 63.1159 572.325 63.45965Q572.59064 63.787773 572.98126 63.787773Q573.3875 63.787773 573.6375 63.444023Q573.90314 63.100273 573.90314 62.20965Q573.90314 61.3659 573.6375 61.037773Q573.3719 60.694023 572.98126 60.694023ZM572.98126 69.02215L577.6844 59.975273L578.54376 59.975273L573.85626 69.02215L572.98126 69.02215ZM576.7 66.69402Q576.7 65.77215 577.15314 65.13152Q577.6219 64.4909 578.5125 64.4909Q579.325 64.4909 579.85626 65.06902Q580.3875 65.63152 580.3875 66.75652Q580.3875 67.85027 579.84064 68.44402Q579.3094 69.02215 578.5125 69.02215Q577.7469 69.02215 577.21564 68.44402Q576.7 67.8659 576.7 66.69402ZM578.54376 65.20965Q578.1375 65.20965 577.8719 65.5534Q577.6219 65.89715 577.6219 66.8034Q577.6219 67.6159 577.8875 67.95965Q578.15314 68.3034 578.54376 68.3034Q578.9344 68.3034 579.2 67.95965Q579.46564 67.6159 579.46564 66.70965Q579.46564 65.88152 579.2 65.5534Q578.9344 65.20965 578.54376 65.20965Z" fill-rule="nonzero"/><path stroke="#757575" stroke-width="1.0" stroke-linecap="butt" d="M581.45 56.20965L472.95 56.20965L391.8627 56.20965" fill-rule="nonzero"/><path fill="#9e9e9e" d="M393.8627 56.20965C393.8627 55.105076 392.9673 54.20965 391.8627 54.20965C390.75815 54.20965 389.8627 55.105076 389.8627 56.20965C389.8627 57.314217 390.75815 58.20965 391.8627 58.20965C392.9673 58.20965 393.8627 57.314217 393.8627 56.20965" fill-rule="nonzero"/><path fill="#1a1a1a" d="M538.9969 154.95457L540.0594 154.86082Q540.1375 155.51707 540.41876 155.92332Q540.7 156.32957 541.27814 156.5952Q541.8719 156.8452 542.60626 156.8452Q543.2469 156.8452 543.7469 156.6577Q544.2469 156.45457 544.48126 156.12645Q544.73126 155.7827 544.73126 155.39207Q544.73126 154.98582 544.4969 154.68895Q544.2625 154.37645 543.73126 154.17332Q543.3719 154.0327 542.1844 153.75145Q541.0125 153.4702 540.54376 153.2202Q539.91876 152.89207 539.6219 152.42332Q539.325 151.93895 539.325 151.3452Q539.325 150.70457 539.6844 150.14207Q540.0594 149.56395 540.7625 149.2827Q541.48126 148.98582 542.34064 148.98582Q543.29376 148.98582 544.02814 149.29832Q544.7625 149.5952 545.15314 150.20457Q545.54376 150.79832 545.575 151.54832L544.48126 151.62645Q544.3875 150.81395 543.8719 150.4077Q543.3719 149.98582 542.3875 149.98582Q541.35626 149.98582 540.8875 150.36082Q540.41876 150.73582 540.41876 151.26707Q540.41876 151.73582 540.7469 152.0327Q541.075 152.32957 542.45 152.64207Q543.84064 152.95457 544.35626 153.18895Q545.10626 153.54832 545.46564 154.07957Q545.825 154.5952 545.825 155.29832Q545.825 155.98582 545.4344 156.5952Q545.04376 157.18895 544.3094 157.5327Q543.575 157.86082 542.65314 157.86082Q541.48126 157.86082 540.6844 157.5327Q539.90314 157.18895 539.45 156.50145Q539.0125 155.81395 538.9969 154.95457ZM549.54376 156.7827L549.7 157.70457Q549.2469 157.79832 548.90314 157.79832Q548.325 157.79832 548.0125 157.62645Q547.7 157.43895 547.5594 157.14207Q547.4344 156.8452 547.4344 155.89207L547.4344 152.31395L546.66876 152.31395L546.66876 151.50145L547.4344 151.50145L547.4344 149.95457L548.48126 149.32957L548.48126 151.50145L549.54376 151.50145L549.54376 152.31395L548.48126 152.31395L548.48126 155.95457Q548.48126 156.4077 548.52814 156.5327Q548.59064 156.6577 548.71564 156.73582Q548.84064 156.81395 549.075 156.81395Q549.2625 156.81395 549.54376 156.7827ZM549.85626 154.61082Q549.85626 152.87645 550.8094 152.04832Q551.60626 151.36082 552.7625 151.36082Q554.04376 151.36082 554.85626 152.20457Q555.6844 153.0327 555.6844 154.51707Q555.6844 155.7202 555.325 156.4077Q554.96564 157.0952 554.2625 157.48582Q553.575 157.86082 552.7625 157.86082Q551.46564 157.86082 550.65314 157.0327Q549.85626 156.18895 549.85626 154.61082ZM550.9344 154.61082Q550.9344 155.79832 551.45 156.39207Q551.98126 156.98582 552.7625 156.98582Q553.5594 156.98582 554.075 156.39207Q554.59064 155.79832 554.59064 154.57957Q554.59064 153.42332 554.0594 152.82957Q553.54376 152.23582 552.7625 152.23582Q551.98126 152.23582 551.45 152.82957Q550.9344 153.4077 550.9344 154.61082ZM557.23126 157.7202L557.23126 151.50145L558.1844 151.50145L558.1844 152.43895Q558.54376 151.7827 558.84064 151.57957Q559.15314 151.36082 559.52814 151.36082Q560.0594 151.36082 560.60626 151.68895L560.2469 152.67332Q559.85626 152.43895 559.48126 152.43895Q559.1219 152.43895 558.84064 152.6577Q558.575 152.86082 558.46564 153.23582Q558.27814 153.79832 558.27814 154.45457L558.27814 157.7202L557.23126 157.7202ZM565.3094 156.95457Q564.71564 157.45457 564.16876 157.6577Q563.6375 157.86082 563.0125 157.86082Q561.98126 157.86082 561.4344 157.36082Q560.8875 156.86082 560.8875 156.07957Q560.8875 155.62645 561.09064 155.25145Q561.29376 154.86082 561.6375 154.64207Q561.98126 154.4077 562.40314 154.29832Q562.7 154.20457 563.34064 154.12645Q564.60626 153.98582 565.21564 153.76707Q565.21564 153.54832 565.21564 153.50145Q565.21564 152.8452 564.91876 152.57957Q564.5125 152.23582 563.71564 152.23582Q562.98126 152.23582 562.6219 152.50145Q562.2625 152.75145 562.09064 153.4077L561.0594 153.26707Q561.2 152.61082 561.52814 152.20457Q561.85626 151.79832 562.46564 151.57957Q563.075 151.36082 563.8719 151.36082Q564.66876 151.36082 565.16876 151.54832Q565.66876 151.73582 565.90314 152.01707Q566.1375 152.29832 566.23126 152.73582Q566.27814 153.00145 566.27814 153.70457L566.27814 155.11082Q566.27814 156.57957 566.34064 156.9702Q566.41876 157.36082 566.6219 157.7202L565.5125 157.7202Q565.35626 157.39207 565.3094 156.95457ZM565.21564 154.5952Q564.6375 154.82957 563.4969 155.00145Q562.84064 155.0952 562.575 155.2202Q562.3094 155.32957 562.15314 155.54832Q562.0125 155.76707 562.0125 156.04832Q562.0125 156.4702 562.325 156.75145Q562.65314 157.0327 563.2625 157.0327Q563.8719 157.0327 564.34064 156.76707Q564.825 156.50145 565.04376 156.0327Q565.21564 155.67332 565.21564 154.98582L565.21564 154.5952ZM568.04376 158.23582L569.075 158.39207Q569.1375 158.86082 569.4344 159.07957Q569.825 159.37645 570.4969 159.37645Q571.23126 159.37645 571.6219 159.07957Q572.02814 158.7827 572.16876 158.26707Q572.2625 157.93895 572.2469 156.9077Q571.5594 157.7202 570.52814 157.7202Q569.2469 157.7202 568.54376 156.79832Q567.84064 155.86082 567.84064 154.57957Q567.84064 153.68895 568.15314 152.93895Q568.48126 152.17332 569.09064 151.76707Q569.7 151.36082 570.52814 151.36082Q571.6375 151.36082 572.35626 152.25145L572.35626 151.50145L573.325 151.50145L573.325 156.87645Q573.325 158.32957 573.02814 158.93895Q572.73126 159.54832 572.09064 159.89207Q571.45 160.25145 570.5125 160.25145Q569.40314 160.25145 568.71564 159.75145Q568.02814 159.25145 568.04376 158.23582ZM568.91876 154.50145Q568.91876 155.7202 569.40314 156.2827Q569.8875 156.8452 570.6219 156.8452Q571.35626 156.8452 571.84064 156.2827Q572.34064 155.7202 572.34064 154.5327Q572.34064 153.39207 571.825 152.81395Q571.325 152.23582 570.60626 152.23582Q569.90314 152.23582 569.40314 152.81395Q568.91876 153.37645 568.91876 154.50145ZM579.4969 155.7202L580.59064 155.8452Q580.34064 156.79832 579.6375 157.32957Q578.9344 157.86082 577.85626 157.86082Q576.4969 157.86082 575.6844 157.01707Q574.8875 156.17332 574.8875 154.6577Q574.8875 153.0952 575.7 152.23582Q576.5125 151.36082 577.79376 151.36082Q579.04376 151.36082 579.825 152.20457Q580.6219 153.04832 580.6219 154.5952Q580.6219 154.68895 580.6219 154.87645L575.98126 154.87645Q576.04376 155.9077 576.5594 156.45457Q577.075 156.98582 577.85626 156.98582Q578.4344 156.98582 578.84064 156.68895Q579.2625 156.37645 579.4969 155.7202ZM576.04376 154.01707L579.5125 154.01707Q579.45 153.2202 579.1219 152.82957Q578.60626 152.2202 577.8094 152.2202Q577.075 152.2202 576.575 152.70457Q576.09064 153.18895 576.04376 154.01707Z" fill-rule="nonzero"/><path fill="#9e9e9e" d="M559.41876 168.23582L558.3719 168.31395Q558.23126 167.68895 557.98126 167.4077Q557.54376 166.95457 556.91876 166.95457Q556.41876 166.95457 556.02814 167.23582Q555.54376 167.61082 555.2469 168.31395Q554.96564 169.00145 554.95 170.2827Q555.325 169.70457 555.8719 169.42332Q556.4344 169.14207 557.04376 169.14207Q558.09064 169.14207 558.825 169.92332Q559.575 170.70457 559.575 171.92332Q559.575 172.73582 559.21564 173.43895Q558.8719 174.12645 558.2625 174.50145Q557.65314 174.86082 556.8875 174.86082Q555.5594 174.86082 554.73126 173.89207Q553.90314 172.92332 553.90314 170.70457Q553.90314 168.20457 554.825 167.07957Q555.6219 166.0952 556.98126 166.0952Q557.9969 166.0952 558.6375 166.67332Q559.29376 167.23582 559.41876 168.23582ZM555.1219 171.93895Q555.1219 172.48582 555.34064 172.98582Q555.575 173.4702 555.98126 173.73582Q556.40314 174.00145 556.8719 174.00145Q557.52814 174.00145 558.0125 173.4702Q558.4969 172.92332 558.4969 172.00145Q558.4969 171.11082 558.0125 170.5952Q557.54376 170.07957 556.825 170.07957Q556.10626 170.07957 555.60626 170.5952Q555.1219 171.11082 555.1219 171.93895ZM561.54376 174.7202L561.54376 173.51707L562.7469 173.51707L562.7469 174.7202L561.54376 174.7202ZM563.95 170.48582Q563.95 168.95457 564.2625 168.0327Q564.575 167.0952 565.1844 166.5952Q565.8094 166.0952 566.7469 166.0952Q567.4344 166.0952 567.95 166.37645Q568.48126 166.6577 568.825 167.18895Q569.16876 167.70457 569.35626 168.45457Q569.54376 169.20457 569.54376 170.48582Q569.54376 172.00145 569.23126 172.92332Q568.9344 173.8452 568.3094 174.36082Q567.7 174.86082 566.7469 174.86082Q565.5125 174.86082 564.79376 173.9702Q563.95 172.9077 563.95 170.48582ZM565.02814 170.48582Q565.02814 172.5952 565.52814 173.29832Q566.02814 174.00145 566.7469 174.00145Q567.48126 174.00145 567.96564 173.29832Q568.46564 172.5952 568.46564 170.48582Q568.46564 168.36082 567.96564 167.67332Q567.48126 166.9702 566.73126 166.9702Q566.0125 166.9702 565.575 167.57957Q565.02814 168.36082 565.02814 170.48582ZM571.15314 168.18895Q571.15314 167.26707 571.60626 166.62645Q572.075 165.98582 572.95 165.98582Q573.7625 165.98582 574.29376 166.56395Q574.825 167.14207 574.825 168.25145Q574.825 169.3452 574.27814 169.93895Q573.7469 170.51707 572.96564 170.51707Q572.1844 170.51707 571.66876 169.93895Q571.15314 169.36082 571.15314 168.18895ZM572.98126 166.70457Q572.59064 166.70457 572.325 167.04832Q572.075 167.39207 572.075 168.29832Q572.075 169.12645 572.325 169.4702Q572.59064 169.79832 572.98126 169.79832Q573.3875 169.79832 573.6375 169.45457Q573.90314 169.11082 573.90314 168.2202Q573.90314 167.37645 573.6375 167.04832Q573.3719 166.70457 572.98126 166.70457ZM572.98126 175.0327L577.6844 165.98582L578.54376 165.98582L573.85626 175.0327L572.98126 175.0327ZM576.7 172.70457Q576.7 171.7827 577.15314 171.14207Q577.6219 170.50145 578.5125 170.50145Q579.325 170.50145 579.85626 171.07957Q580.3875 171.64207 580.3875 172.76707Q580.3875 173.86082 579.84064 174.45457Q579.3094 175.0327 578.5125 175.0327Q577.7469 175.0327 577.21564 174.45457Q576.7 173.87645 576.7 172.70457ZM578.54376 171.2202Q578.1375 171.2202 577.8719 171.56395Q577.6219 171.9077 577.6219 172.81395Q577.6219 173.62645 577.8875 173.9702Q578.15314 174.31395 578.54376 174.31395Q578.9344 174.31395 579.2 173.9702Q579.46564 173.62645 579.46564 172.7202Q579.46564 171.89207 579.2 171.56395Q578.9344 171.2202 578.54376 171.2202Z" fill-rule="nonzero"/><path stroke="#757575" stroke-width="1.0" stroke-linecap="butt" d="M581.45 162.2202L472.95 162.2202L456.88467 162.2202" fill-rule="nonzero"/><path fill="#9e9e9e" d="M458.88467 162.2202C458.88467 161.11563 457.98926 160.2202 456.88467 160.2202C455.78012 160.2202 454.88467 161.11563 454.88467 162.2202C454.88467 163.32477 455.78012 164.2202 456.88467 164.2202C457.98926 164.2202 458.88467 163.32477 458.88467 162.2202" fill-rule="nonzero"/><path fill="#1a1a1a" d="M536.325 228.46416L536.325 219.8704L539.5594 219.8704Q540.54376 219.8704 541.1375 220.13603Q541.73126 220.40166 542.0594 220.94853Q542.40314 221.47978 542.40314 222.07353Q542.40314 222.6204 542.10626 223.10478Q541.8094 223.58916 541.2 223.88603Q541.98126 224.1204 542.3875 224.6829Q542.8094 225.22978 542.8094 225.97978Q542.8094 226.57353 542.5594 227.10478Q542.3094 227.6204 541.9344 227.90166Q541.5594 228.1829 540.98126 228.32353Q540.41876 228.46416 539.60626 228.46416L536.325 228.46416ZM537.46564 223.47978L539.325 223.47978Q540.075 223.47978 540.40314 223.38603Q540.84064 223.26103 541.0594 222.96416Q541.27814 222.65166 541.27814 222.19853Q541.27814 221.77666 541.075 221.44853Q540.8719 221.1204 540.48126 221.01103Q540.10626 220.88603 539.1844 220.88603L537.46564 220.88603L537.46564 223.47978ZM537.46564 227.44853L539.60626 227.44853Q540.15314 227.44853 540.3719 227.40166Q540.77814 227.33916 541.02814 227.1829Q541.29376 227.01103 541.46564 226.69853Q541.6375 226.38603 541.6375 225.97978Q541.6375 225.4954 541.3875 225.13603Q541.15314 224.77666 540.71564 224.63603Q540.27814 224.4954 539.45 224.4954L537.46564 224.4954L537.46564 227.44853ZM548.325 228.46416L548.325 227.54228Q547.59064 228.60478 546.34064 228.60478Q545.79376 228.60478 545.3094 228.40166Q544.84064 228.1829 544.60626 227.8704Q544.3719 227.54228 544.27814 227.07353Q544.21564 226.77666 544.21564 226.08916L544.21564 222.2454L545.27814 222.2454L545.27814 225.69853Q545.27814 226.51103 545.34064 226.8079Q545.4344 227.21416 545.7469 227.46416Q546.075 227.69853 546.5594 227.69853Q547.02814 227.69853 547.4344 227.46416Q547.85626 227.21416 548.02814 226.79228Q548.21564 226.3704 548.21564 225.57353L548.21564 222.2454L549.2625 222.2454L549.2625 228.46416L548.325 228.46416ZM551.2469 221.08916L551.2469 219.8704L552.3094 219.8704L552.3094 221.08916L551.2469 221.08916ZM551.2469 228.46416L551.2469 222.2454L552.3094 222.2454L552.3094 228.46416L551.2469 228.46416ZM554.21564 228.46416L554.21564 219.8704L555.27814 219.8704L555.27814 228.46416L554.21564 228.46416ZM561.27814 228.46416L561.27814 227.6829Q560.6844 228.60478 559.54376 228.60478Q558.79376 228.60478 558.16876 228.19853Q557.54376 227.77666 557.2 227.04228Q556.85626 226.3079 556.85626 225.35478Q556.85626 224.4329 557.16876 223.66728Q557.48126 222.90166 558.10626 222.51103Q558.73126 222.10478 559.4969 222.10478Q560.0594 222.10478 560.4969 222.33916Q560.9344 222.57353 561.21564 222.94853L561.21564 219.8704L562.2625 219.8704L562.2625 228.46416L561.27814 228.46416ZM557.95 225.35478Q557.95 226.5579 558.45 227.15166Q558.95 227.72978 559.6375 227.72978Q560.325 227.72978 560.8094 227.16728Q561.29376 226.60478 561.29376 225.44853Q561.29376 224.16728 560.79376 223.57353Q560.3094 222.97978 559.59064 222.97978Q558.8875 222.97978 558.41876 223.5579Q557.95 224.1204 557.95 225.35478ZM568.4969 226.46416L569.59064 226.58916Q569.34064 227.54228 568.6375 228.07353Q567.9344 228.60478 566.85626 228.60478Q565.4969 228.60478 564.6844 227.76103Q563.8875 226.91728 563.8875 225.40166Q563.8875 223.83916 564.7 222.97978Q565.5125 222.10478 566.79376 222.10478Q568.04376 222.10478 568.825 222.94853Q569.6219 223.79228 569.6219 225.33916Q569.6219 225.4329 569.6219 225.6204L564.98126 225.6204Q565.04376 226.65166 565.5594 227.19853Q566.075 227.72978 566.85626 227.72978Q567.4344 227.72978 567.84064 227.4329Q568.2625 227.1204 568.4969 226.46416ZM565.04376 224.76103L568.5125 224.76103Q568.45 223.96416 568.1219 223.57353Q567.60626 222.96416 566.8094 222.96416Q566.075 222.96416 565.575 223.44853Q565.09064 223.9329 565.04376 224.76103ZM571.23126 228.46416L571.23126 222.2454L572.1844 222.2454L572.1844 223.1829Q572.54376 222.52666 572.84064 222.32353Q573.15314 222.10478 573.52814 222.10478Q574.0594 222.10478 574.60626 222.4329L574.2469 223.41728Q573.85626 223.1829 573.48126 223.1829Q573.1219 223.1829 572.84064 223.40166Q572.575 223.60478 572.46564 223.97978Q572.27814 224.54228 572.27814 225.19853L572.27814 228.46416L571.23126 228.46416ZM574.825 226.60478L575.85626 226.44853Q575.95 227.07353 576.34064 227.40166Q576.7469 227.72978 577.48126 227.72978Q578.2 227.72978 578.54376 227.44853Q578.90314 227.15166 578.90314 226.7454Q578.90314 226.38603 578.59064 226.1829Q578.3719 226.04228 577.5125 225.82353Q576.35626 225.52666 575.90314 225.32353Q575.46564 225.10478 575.23126 224.72978Q574.9969 224.35478 574.9969 223.88603Q574.9969 223.47978 575.1844 223.1204Q575.3719 222.76103 575.7 222.52666Q575.95 222.35478 576.3719 222.22978Q576.79376 222.10478 577.29376 222.10478Q578.0125 222.10478 578.5594 222.32353Q579.1219 222.52666 579.3875 222.88603Q579.65314 223.2454 579.7469 223.83916L578.71564 223.97978Q578.65314 223.51103 578.3094 223.2454Q577.98126 222.96416 577.35626 222.96416Q576.6375 222.96416 576.325 223.21416Q576.0125 223.44853 576.0125 223.77666Q576.0125 223.97978 576.1375 224.13603Q576.27814 224.3079 576.54376 224.41728Q576.7 224.47978 577.48126 224.6829Q578.60626 224.9954 579.04376 225.1829Q579.48126 225.3704 579.73126 225.72978Q579.98126 226.08916 579.98126 226.63603Q579.98126 227.16728 579.66876 227.63603Q579.3719 228.08916 578.79376 228.35478Q578.21564 228.60478 577.48126 228.60478Q576.2625 228.60478 575.6219 228.10478Q574.9969 227.58916 574.825 226.60478Z" fill-rule="nonzero"/><path fill="#9e9e9e" d="M555.575 240.8079Q554.91876 240.5579 554.59064 240.1204Q554.27814 239.66728 554.27814 239.0579Q554.27814 238.1204 554.95 237.47978Q555.6375 236.83916 556.7469 236.83916Q557.8719 236.83916 558.5594 237.4954Q559.2469 238.15166 559.2469 239.08916Q559.2469 239.6829 558.9344 240.1204Q558.6219 240.5579 557.98126 240.8079Q558.77814 241.0579 559.1844 241.63603Q559.59064 242.21416 559.59064 243.01103Q559.59064 244.10478 558.8094 244.85478Q558.04376 245.60478 556.7625 245.60478Q555.4969 245.60478 554.71564 244.85478Q553.9344 244.10478 553.9344 242.97978Q553.9344 242.13603 554.35626 241.57353Q554.79376 241.01103 555.575 240.8079ZM555.35626 239.01103Q555.35626 239.6204 555.7469 240.01103Q556.15314 240.40166 556.77814 240.40166Q557.3875 240.40166 557.77814 240.02666Q558.16876 239.63603 558.16876 239.07353Q558.16876 238.4954 557.7625 238.10478Q557.35626 237.69853 556.7625 237.69853Q556.15314 237.69853 555.7469 238.08916Q555.35626 238.47978 555.35626 239.01103ZM555.02814 242.97978Q555.02814 243.4329 555.23126 243.85478Q555.45 244.27666 555.8719 244.51103Q556.29376 244.7454 556.77814 244.7454Q557.52814 244.7454 558.0125 244.26103Q558.5125 243.77666 558.5125 243.02666Q558.5125 242.26103 558.0125 241.76103Q557.5125 241.26103 556.7469 241.26103Q555.9969 241.26103 555.5125 241.76103Q555.02814 242.2454 555.02814 242.97978ZM561.54376 245.46416L561.54376 244.26103L562.7469 244.26103L562.7469 245.46416L561.54376 245.46416ZM567.325 245.46416L567.325 243.40166L563.60626 243.40166L563.60626 242.4329L567.52814 236.8704L568.3875 236.8704L568.3875 242.4329L569.54376 242.4329L569.54376 243.40166L568.3875 243.40166L568.3875 245.46416L567.325 245.46416ZM567.325 242.4329L567.325 238.57353L564.6375 242.4329L567.325 242.4329ZM571.15314 238.9329Q571.15314 238.01103 571.60626 237.3704Q572.075 236.72978 572.95 236.72978Q573.7625 236.72978 574.29376 237.3079Q574.825 237.88603 574.825 238.9954Q574.825 240.08916 574.27814 240.6829Q573.7469 241.26103 572.96564 241.26103Q572.1844 241.26103 571.66876 240.6829Q571.15314 240.10478 571.15314 238.9329ZM572.98126 237.44853Q572.59064 237.44853 572.325 237.79228Q572.075 238.13603 572.075 239.04228Q572.075 239.8704 572.325 240.21416Q572.59064 240.54228 572.98126 240.54228Q573.3875 240.54228 573.6375 240.19853Q573.90314 239.85478 573.90314 238.96416Q573.90314 238.1204 573.6375 237.79228Q573.3719 237.44853 572.98126 237.44853ZM572.98126 245.77666L577.6844 236.72978L578.54376 236.72978L573.85626 245.77666L572.98126 245.77666ZM576.7 243.44853Q576.7 242.52666 577.15314 241.88603Q577.6219 241.2454 578.5125 241.2454Q579.325 241.2454 579.85626 241.82353Q580.3875 242.38603 580.3875 243.51103Q580.3875 244.60478 579.84064 245.19853Q579.3094 245.77666 578.5125 245.77666Q577.7469 245.77666 577.21564 245.19853Q576.7 244.6204 576.7 243.44853ZM578.54376 241.96416Q578.1375 241.96416 577.8719 242.3079Q577.6219 242.65166 577.6219 243.5579Q577.6219 244.3704 577.8875 244.71416Q578.15314 245.0579 578.54376 245.0579Q578.9344 245.0579 579.2 244.71416Q579.46564 244.3704 579.46564 243.46416Q579.46564 242.63603 579.2 242.3079Q578.9344 241.96416 578.54376 241.96416Z" fill-rule="nonzero"/><path stroke="#757575" stroke-width="1.0" stroke-linecap="butt" d="M581.45 232.96416L472.95 232.96416L451.33377 232.96416" fill-rule="nonzero"/><path fill="#9e9e9e" d="M453.33377 232.96416C453.33377 231.85959 452.43832 230.96416 451.33377 230.96416C450.2292 230.96416 449.33377 231.85959 449.33377 232.96416C449.33377 234.06873 450.2292 234.96416 451.33377 234.96416C452.43832 234.96416 453.33377 234.06873 453.33377 232.96416" fill-rule="nonzero"/><path fill="#1a1a1a" d="M500.4344 295.492L503.73126 286.89825L504.95 286.89825L508.46564 295.492L507.1844 295.492L506.16876 292.88263L502.59064 292.88263L501.6375 295.492L500.4344 295.492ZM502.91876 291.96075L505.825 291.96075L504.9344 289.58575Q504.5125 288.50763 504.325 287.8045Q504.15314 288.63263 503.85626 289.44513L502.91876 291.96075ZM508.2469 297.88263L508.2469 289.27325L509.2 289.27325L509.2 290.07013Q509.54376 289.60138 509.96564 289.367Q510.40314 289.13263 511.0125 289.13263Q511.8094 289.13263 512.41876 289.53888Q513.02814 289.94513 513.325 290.69513Q513.6375 291.44513 513.6375 292.33575Q513.6375 293.28888 513.29376 294.0545Q512.96564 294.82013 512.3094 295.22638Q511.65314 295.63263 510.9344 295.63263Q510.40314 295.63263 509.98126 295.41388Q509.5594 295.1795 509.29376 294.85138L509.29376 297.88263L508.2469 297.88263ZM509.2 292.41388Q509.2 293.617 509.6844 294.19513Q510.16876 294.75763 510.85626 294.75763Q511.5594 294.75763 512.0594 294.16388Q512.5594 293.57013 512.5594 292.32013Q512.5594 291.13263 512.075 290.5545Q511.59064 289.96075 510.90314 289.96075Q510.23126 289.96075 509.71564 290.58575Q509.2 291.21075 509.2 292.41388ZM515.2469 297.88263L515.2469 289.27325L516.2 289.27325L516.2 290.07013Q516.54376 289.60138 516.96564 289.367Q517.40314 289.13263 518.0125 289.13263Q518.8094 289.13263 519.41876 289.53888Q520.02814 289.94513 520.325 290.69513Q520.6375 291.44513 520.6375 292.33575Q520.6375 293.28888 520.29376 294.0545Q519.96564 294.82013 519.3094 295.22638Q518.65314 295.63263 517.9344 295.63263Q517.40314 295.63263 516.98126 295.41388Q516.5594 295.1795 516.29376 294.85138L516.29376 297.88263L515.2469 297.88263ZM516.2 292.41388Q516.2 293.617 516.6844 294.19513Q517.16876 294.75763 517.85626 294.75763Q518.5594 294.75763 519.0594 294.16388Q519.5594 293.57013 519.5594 292.32013Q519.5594 291.13263 519.075 290.5545Q518.59064 289.96075 517.90314 289.96075Q517.23126 289.96075 516.71564 290.58575Q516.2 291.21075 516.2 292.41388ZM527.2625 298.02325Q526.3875 296.91388 525.77814 295.44513Q525.1844 293.96075 525.1844 292.38263Q525.1844 290.992 525.6219 289.71075Q526.15314 288.22638 527.2625 286.75763L528.0125 286.75763Q527.3094 287.97638 527.075 288.492Q526.71564 289.3045 526.5125 290.1795Q526.2625 291.27325 526.2625 292.38263Q526.2625 295.21075 528.0125 298.02325L527.2625 298.02325ZM529.2469 295.492L529.2469 289.27325L530.1844 289.27325L530.1844 290.14825Q530.8719 289.13263 532.16876 289.13263Q532.73126 289.13263 533.2 289.33575Q533.6844 289.53888 533.91876 289.867Q534.15314 290.19513 534.2469 290.63263Q534.29376 290.9295 534.29376 291.66388L534.29376 295.492L533.2469 295.492L533.2469 291.71075Q533.2469 291.0545 533.1219 290.742Q532.9969 290.4295 532.6844 290.242Q532.3719 290.03888 531.95 290.03888Q531.27814 290.03888 530.77814 290.47638Q530.29376 290.89825 530.29376 292.08575L530.29376 295.492L529.2469 295.492ZM535.85626 292.38263Q535.85626 290.64825 536.8094 289.82013Q537.60626 289.13263 538.7625 289.13263Q540.04376 289.13263 540.85626 289.97638Q541.6844 290.8045 541.6844 292.28888Q541.6844 293.492 541.325 294.1795Q540.96564 294.867 540.2625 295.25763Q539.575 295.63263 538.7625 295.63263Q537.46564 295.63263 536.65314 294.8045Q535.85626 293.96075 535.85626 292.38263ZM536.9344 292.38263Q536.9344 293.57013 537.45 294.16388Q537.98126 294.75763 538.7625 294.75763Q539.5594 294.75763 540.075 294.16388Q540.59064 293.57013 540.59064 292.35138Q540.59064 291.19513 540.0594 290.60138Q539.54376 290.00763 538.7625 290.00763Q537.98126 290.00763 537.45 290.60138Q536.9344 291.1795 536.9344 292.38263ZM546.23126 295.492L546.23126 289.27325L547.1844 289.27325L547.1844 290.21075Q547.54376 289.5545 547.84064 289.35138Q548.15314 289.13263 548.52814 289.13263Q549.0594 289.13263 549.60626 289.46075L549.2469 290.44513Q548.85626 290.21075 548.48126 290.21075Q548.1219 290.21075 547.84064 290.4295Q547.575 290.63263 547.46564 291.00763Q547.27814 291.57013 547.27814 292.22638L547.27814 295.492L546.23126 295.492ZM554.4969 293.492L555.59064 293.617Q555.34064 294.57013 554.6375 295.10138Q553.9344 295.63263 552.85626 295.63263Q551.4969 295.63263 550.6844 294.78888Q549.8875 293.94513 549.8875 292.4295Q549.8875 290.867 550.7 290.00763Q551.5125 289.13263 552.79376 289.13263Q554.04376 289.13263 554.825 289.97638Q555.6219 290.82013 555.6219 292.367Q555.6219 292.46075 555.6219 292.64825L550.98126 292.64825Q551.04376 293.6795 551.5594 294.22638Q552.075 294.75763 552.85626 294.75763Q553.4344 294.75763 553.84064 294.46075Q554.2625 294.14825 554.4969 293.492ZM551.04376 291.78888L554.5125 291.78888Q554.45 290.992 554.1219 290.60138Q553.60626 289.992 552.8094 289.992Q552.075 289.992 551.575 290.47638Q551.09064 290.96075 551.04376 291.78888ZM557.2469 297.88263L557.2469 289.27325L558.2 289.27325L558.2 290.07013Q558.54376 289.60138 558.96564 289.367Q559.40314 289.13263 560.0125 289.13263Q560.8094 289.13263 561.41876 289.53888Q562.02814 289.94513 562.325 290.69513Q562.6375 291.44513 562.6375 292.33575Q562.6375 293.28888 562.29376 294.0545Q561.96564 294.82013 561.3094 295.22638Q560.65314 295.63263 559.9344 295.63263Q559.40314 295.63263 558.98126 295.41388Q558.5594 295.1795 558.29376 294.85138L558.29376 297.88263L557.2469 297.88263ZM558.2 292.41388Q558.2 293.617 558.6844 294.19513Q559.16876 294.75763 559.85626 294.75763Q560.5594 294.75763 561.0594 294.16388Q561.5594 293.57013 561.5594 292.32013Q561.5594 291.13263 561.075 290.5545Q560.59064 289.96075 559.90314 289.96075Q559.23126 289.96075 558.71564 290.58575Q558.2 291.21075 558.2 292.41388ZM563.85626 292.38263Q563.85626 290.64825 564.8094 289.82013Q565.60626 289.13263 566.7625 289.13263Q568.04376 289.13263 568.85626 289.97638Q569.6844 290.8045 569.6844 292.28888Q569.6844 293.492 569.325 294.1795Q568.96564 294.867 568.2625 295.25763Q567.575 295.63263 566.7625 295.63263Q565.46564 295.63263 564.65314 294.8045Q563.85626 293.96075 563.85626 292.38263ZM564.9344 292.38263Q564.9344 293.57013 565.45 294.16388Q565.98126 294.75763 566.7625 294.75763Q567.5594 294.75763 568.075 294.16388Q568.59064 293.57013 568.59064 292.35138Q568.59064 291.19513 568.0594 290.60138Q567.54376 290.00763 566.7625 290.00763Q565.98126 290.00763 565.45 290.60138Q564.9344 291.1795 564.9344 292.38263ZM571.23126 295.492L571.23126 289.27325L572.1844 289.27325L572.1844 290.21075Q572.54376 289.5545 572.84064 289.35138Q573.15314 289.13263 573.52814 289.13263Q574.0594 289.13263 574.60626 289.46075L574.2469 290.44513Q573.85626 290.21075 573.48126 290.21075Q573.1219 290.21075 572.84064 290.4295Q572.575 290.63263 572.46564 291.00763Q572.27814 291.57013 572.27814 292.22638L572.27814 295.492L571.23126 295.492ZM577.54376 294.5545L577.7 295.47638Q577.2469 295.57013 576.90314 295.57013Q576.325 295.57013 576.0125 295.39825Q575.7 295.21075 575.5594 294.91388Q575.4344 294.617 575.4344 293.66388L575.4344 290.08575L574.66876 290.08575L574.66876 289.27325L575.4344 289.27325L575.4344 287.72638L576.48126 287.10138L576.48126 289.27325L577.54376 289.27325L577.54376 290.08575L576.48126 290.08575L576.48126 293.72638Q576.48126 294.1795 576.52814 294.3045Q576.59064 294.4295 576.71564 294.50763Q576.84064 294.58575 577.075 294.58575Q577.2625 294.58575 577.54376 294.5545ZM578.9344 298.02325L578.1844 298.02325Q579.9344 295.21075 579.9344 292.38263Q579.9344 291.28888 579.6844 290.19513Q579.48126 289.32013 579.1219 288.50763Q578.8875 287.992 578.1844 286.75763L578.9344 286.75763Q580.02814 288.22638 580.5594 289.71075Q581.0125 290.992 581.0125 292.38263Q581.0125 293.96075 580.40314 295.44513Q579.79376 296.91388 578.9344 298.02325Z" fill-rule="nonzero"/><path fill="#9e9e9e" d="M554.0125 305.02325L554.0125 304.00763L559.575 304.00763L559.575 304.83575Q558.7625 305.71075 557.95 307.16388Q557.15314 308.60138 556.71564 310.13263Q556.3875 311.21075 556.3094 312.492L555.21564 312.492Q555.23126 311.47638 555.60626 310.03888Q555.9969 308.60138 556.7 307.27325Q557.41876 305.94513 558.23126 305.02325L554.0125 305.02325ZM561.54376 312.492L561.54376 311.28888L562.7469 311.28888L562.7469 312.492L561.54376 312.492ZM569.41876 306.00763L568.3719 306.08575Q568.23126 305.46075 567.98126 305.1795Q567.54376 304.72638 566.91876 304.72638Q566.41876 304.72638 566.02814 305.00763Q565.54376 305.38263 565.2469 306.08575Q564.96564 306.77325 564.95 308.0545Q565.325 307.47638 565.8719 307.19513Q566.4344 306.91388 567.04376 306.91388Q568.09064 306.91388 568.825 307.69513Q569.575 308.47638 569.575 309.69513Q569.575 310.50763 569.21564 311.21075Q568.8719 311.89825 568.2625 312.27325Q567.65314 312.63263 566.8875 312.63263Q565.5594 312.63263 564.73126 311.66388Q563.90314 310.69513 563.90314 308.47638Q563.90314 305.97638 564.825 304.85138Q565.6219 303.867 566.98126 303.867Q567.9969 303.867 568.6375 304.44513Q569.29376 305.00763 569.41876 306.00763ZM565.1219 309.71075Q565.1219 310.25763 565.34064 310.75763Q565.575 311.242 565.98126 311.50763Q566.40314 311.77325 566.8719 311.77325Q567.52814 311.77325 568.0125 311.242Q568.4969 310.69513 568.4969 309.77325Q568.4969 308.88263 568.0125 308.367Q567.54376 307.85138 566.825 307.85138Q566.10626 307.85138 565.60626 308.367Q565.1219 308.88263 565.1219 309.71075ZM571.15314 305.96075Q571.15314 305.03888 571.60626 304.39825Q572.075 303.75763 572.95 303.75763Q573.7625 303.75763 574.29376 304.33575Q574.825 304.91388 574.825 306.02325Q574.825 307.117 574.27814 307.71075Q573.7469 308.28888 572.96564 308.28888Q572.1844 308.28888 571.66876 307.71075Q571.15314 307.13263 571.15314 305.96075ZM572.98126 304.47638Q572.59064 304.47638 572.325 304.82013Q572.075 305.16388 572.075 306.07013Q572.075 306.89825 572.325 307.242Q572.59064 307.57013 572.98126 307.57013Q573.3875 307.57013 573.6375 307.22638Q573.90314 306.88263 573.90314 305.992Q573.90314 305.14825 573.6375 304.82013Q573.3719 304.47638 572.98126 304.47638ZM572.98126 312.8045L577.6844 303.75763L578.54376 303.75763L573.85626 312.8045L572.98126 312.8045ZM576.7 310.47638Q576.7 309.5545 577.15314 308.91388Q577.6219 308.27325 578.5125 308.27325Q579.325 308.27325 579.85626 308.85138Q580.3875 309.41388 580.3875 310.53888Q580.3875 311.63263 579.84064 312.22638Q579.3094 312.8045 578.5125 312.8045Q577.7469 312.8045 577.21564 312.22638Q576.7 311.64825 576.7 310.47638ZM578.54376 308.992Q578.1375 308.992 577.8719 309.33575Q577.6219 309.6795 577.6219 310.58575Q577.6219 311.39825 577.8875 311.742Q578.15314 312.08575 578.54376 312.08575Q578.9344 312.08575 579.2 311.742Q579.46564 311.39825 579.46564 310.492Q579.46564 309.66388 579.2 309.33575Q578.9344 308.992 578.54376 308.992Z" fill-rule="nonzero"/><path stroke="#757575" stroke-width="1.0" stroke-linecap="butt" d="M581.45 299.992L472.95 299.992L409.7558 299.992" fill-rule="nonzero"/><path fill="#9e9e9e" d="M411.7558 299.992C411.7558 298.88745 410.86035 297.992 409.7558 297.992C408.6512 297.992 407.7558 298.88745 407.7558 299.992C407.7558 301.0966 408.6512 301.992 409.7558 301.992C410.86035 301.992 411.7558 301.0966 411.7558 299.992" fill-rule="nonzero"/><path fill="#1a1a1a" d="M493.3719 331.37524L493.3719 322.7815L496.34064 322.7815Q497.34064 322.7815 497.8719 322.9065Q498.60626 323.07837 499.1219 323.51587Q499.8094 324.094 500.1375 325.00024Q500.48126 325.89087 500.48126 327.0315Q500.48126 328.01587 500.2469 328.76587Q500.02814 329.51587 499.66876 330.01587Q499.3094 330.51587 498.8719 330.79712Q498.45 331.07837 497.85626 331.23462Q497.2625 331.37524 496.48126 331.37524L493.3719 331.37524ZM494.5125 330.35962L496.34064 330.35962Q497.2 330.35962 497.6844 330.20337Q498.16876 330.04712 498.45 329.75024Q498.85626 329.35962 499.075 328.67212Q499.3094 327.98462 499.3094 327.01587Q499.3094 325.67212 498.85626 324.95337Q498.41876 324.219 497.79376 323.969Q497.325 323.79712 496.325 323.79712L494.5125 323.79712L494.5125 330.35962ZM503.8719 331.37524L501.59064 322.7815L502.7625 322.7815L504.075 328.42212Q504.27814 329.29712 504.4344 330.17212Q504.7625 328.79712 504.825 328.57837L506.45 322.7815L507.825 322.7815L509.0594 327.12524Q509.5125 328.75024 509.73126 330.17212Q509.8875 329.35962 510.15314 328.29712L511.4969 322.7815L512.6375 322.7815L510.29376 331.37524L509.1844 331.37524L507.3875 324.82837Q507.15314 324.01587 507.10626 323.82837Q506.98126 324.4065 506.85626 324.82837L505.04376 331.37524L503.8719 331.37524ZM517.40314 328.00024L517.40314 327.00024L521.02814 326.98462L521.02814 330.17212Q520.2 330.844 519.3094 331.18774Q518.41876 331.51587 517.48126 331.51587Q516.21564 331.51587 515.16876 330.98462Q514.1375 330.43774 513.60626 329.42212Q513.09064 328.39087 513.09064 327.12524Q513.09064 325.85962 513.60626 324.7815Q514.1375 323.68774 515.1219 323.17212Q516.10626 322.64087 517.3875 322.64087Q518.325 322.64087 519.075 322.93774Q519.825 323.23462 520.2469 323.7815Q520.6844 324.31274 520.90314 325.18774L519.8875 325.469Q519.6844 324.81274 519.3875 324.43774Q519.10626 324.06274 518.575 323.844Q518.04376 323.60962 517.40314 323.60962Q516.6219 323.60962 516.04376 323.844Q515.48126 324.07837 515.1219 324.469Q514.77814 324.85962 514.59064 325.32837Q514.2625 326.12524 514.2625 327.04712Q514.2625 328.20337 514.65314 328.98462Q515.0594 329.75024 515.8094 330.12524Q516.5594 330.50024 517.41876 330.50024Q518.15314 330.50024 518.85626 330.219Q519.5594 329.92212 519.91876 329.60962L519.91876 328.00024L517.40314 328.00024ZM527.2625 333.9065Q526.3875 332.79712 525.77814 331.32837Q525.1844 329.844 525.1844 328.26587Q525.1844 326.87524 525.6219 325.594Q526.15314 324.10962 527.2625 322.64087L528.0125 322.64087Q527.3094 323.85962 527.075 324.37524Q526.71564 325.18774 526.5125 326.06274Q526.2625 327.1565 526.2625 328.26587Q526.2625 331.094 528.0125 333.9065L527.2625 333.9065ZM529.2469 331.37524L529.2469 325.1565L530.1844 325.1565L530.1844 326.0315Q530.8719 325.01587 532.16876 325.01587Q532.73126 325.01587 533.2 325.219Q533.6844 325.42212 533.91876 325.75024Q534.15314 326.07837 534.2469 326.51587Q534.29376 326.81274 534.29376 327.54712L534.29376 331.37524L533.2469 331.37524L533.2469 327.594Q533.2469 326.93774 533.1219 326.62524Q532.9969 326.31274 532.6844 326.12524Q532.3719 325.92212 531.95 325.92212Q531.27814 325.92212 530.77814 326.35962Q530.29376 326.7815 530.29376 327.969L530.29376 331.37524L529.2469 331.37524ZM535.85626 328.26587Q535.85626 326.5315 536.8094 325.70337Q537.60626 325.01587 538.7625 325.01587Q540.04376 325.01587 540.85626 325.85962Q541.6844 326.68774 541.6844 328.17212Q541.6844 329.37524 541.325 330.06274Q540.96564 330.75024 540.2625 331.14087Q539.575 331.51587 538.7625 331.51587Q537.46564 331.51587 536.65314 330.68774Q535.85626 329.844 535.85626 328.26587ZM536.9344 328.26587Q536.9344 329.45337 537.45 330.04712Q537.98126 330.64087 538.7625 330.64087Q539.5594 330.64087 540.075 330.04712Q540.59064 329.45337 540.59064 328.23462Q540.59064 327.07837 540.0594 326.48462Q539.54376 325.89087 538.7625 325.89087Q537.98126 325.89087 537.45 326.48462Q536.9344 327.06274 536.9344 328.26587ZM546.23126 331.37524L546.23126 325.1565L547.1844 325.1565L547.1844 326.094Q547.54376 325.43774 547.84064 325.23462Q548.15314 325.01587 548.52814 325.01587Q549.0594 325.01587 549.60626 325.344L549.2469 326.32837Q548.85626 326.094 548.48126 326.094Q548.1219 326.094 547.84064 326.31274Q547.575 326.51587 547.46564 326.89087Q547.27814 327.45337 547.27814 328.10962L547.27814 331.37524L546.23126 331.37524ZM554.4969 329.37524L555.59064 329.50024Q555.34064 330.45337 554.6375 330.98462Q553.9344 331.51587 552.85626 331.51587Q551.4969 331.51587 550.6844 330.67212Q549.8875 329.82837 549.8875 328.31274Q549.8875 326.75024 550.7 325.89087Q551.5125 325.01587 552.79376 325.01587Q554.04376 325.01587 554.825 325.85962Q555.6219 326.70337 555.6219 328.25024Q555.6219 328.344 555.6219 328.5315L550.98126 328.5315Q551.04376 329.56274 551.5594 330.10962Q552.075 330.64087 552.85626 330.64087Q553.4344 330.64087 553.84064 330.344Q554.2625 330.0315 554.4969 329.37524ZM551.04376 327.67212L554.5125 327.67212Q554.45 326.87524 554.1219 326.48462Q553.60626 325.87524 552.8094 325.87524Q552.075 325.87524 551.575 326.35962Q551.09064 326.844 551.04376 327.67212ZM557.2469 333.76587L557.2469 325.1565L558.2 325.1565L558.2 325.95337Q558.54376 325.48462 558.96564 325.25024Q559.40314 325.01587 560.0125 325.01587Q560.8094 325.01587 561.41876 325.42212Q562.02814 325.82837 562.325 326.57837Q562.6375 327.32837 562.6375 328.219Q562.6375 329.17212 562.29376 329.93774Q561.96564 330.70337 561.3094 331.10962Q560.65314 331.51587 559.9344 331.51587Q559.40314 331.51587 558.98126 331.29712Q558.5594 331.06274 558.29376 330.73462L558.29376 333.76587L557.2469 333.76587ZM558.2 328.29712Q558.2 329.50024 558.6844 330.07837Q559.16876 330.64087 559.85626 330.64087Q560.5594 330.64087 561.0594 330.04712Q561.5594 329.45337 561.5594 328.20337Q561.5594 327.01587 561.075 326.43774Q560.59064 325.844 559.90314 325.844Q559.23126 325.844 558.71564 326.469Q558.2 327.094 558.2 328.29712ZM563.85626 328.26587Q563.85626 326.5315 564.8094 325.70337Q565.60626 325.01587 566.7625 325.01587Q568.04376 325.01587 568.85626 325.85962Q569.6844 326.68774 569.6844 328.17212Q569.6844 329.37524 569.325 330.06274Q568.96564 330.75024 568.2625 331.14087Q567.575 331.51587 566.7625 331.51587Q565.46564 331.51587 564.65314 330.68774Q563.85626 329.844 563.85626 328.26587ZM564.9344 328.26587Q564.9344 329.45337 565.45 330.04712Q565.98126 330.64087 566.7625 330.64087Q567.5594 330.64087 568.075 330.04712Q568.59064 329.45337 568.59064 328.23462Q568.59064 327.07837 568.0594 326.48462Q567.54376 325.89087 566.7625 325.89087Q565.98126 325.89087 565.45 326.48462Q564.9344 327.06274 564.9344 328.26587ZM571.23126 331.37524L571.23126 325.1565L572.1844 325.1565L572.1844 326.094Q572.54376 325.43774 572.84064 325.23462Q573.15314 325.01587 573.52814 325.01587Q574.0594 325.01587 574.60626 325.344L574.2469 326.32837Q573.85626 326.094 573.48126 326.094Q573.1219 326.094 572.84064 326.31274Q572.575 326.51587 572.46564 326.89087Q572.27814 327.45337 572.27814 328.10962L572.27814 331.37524L571.23126 331.37524ZM577.54376 330.43774L577.7 331.35962Q577.2469 331.45337 576.90314 331.45337Q576.325 331.45337 576.0125 331.2815Q575.7 331.094 575.5594 330.79712Q575.4344 330.50024 575.4344 329.54712L575.4344 325.969L574.66876 325.969L574.66876 325.1565L575.4344 325.1565L575.4344 323.60962L576.48126 322.98462L576.48126 325.1565L577.54376 325.1565L577.54376 325.969L576.48126 325.969L576.48126 329.60962Q576.48126 330.06274 576.52814 330.18774Q576.59064 330.31274 576.71564 330.39087Q576.84064 330.469 577.075 330.469Q577.2625 330.469 577.54376 330.43774ZM578.9344 333.9065L578.1844 333.9065Q579.9344 331.094 579.9344 328.26587Q579.9344 327.17212 579.6844 326.07837Q579.48126 325.20337 579.1219 324.39087Q578.8875 323.87524 578.1844 322.64087L578.9344 322.64087Q580.02814 324.10962 580.5594 325.594Q581.0125 326.87524 581.0125 328.26587Q581.0125 329.844 580.40314 331.32837Q579.79376 332.79712 578.9344 333.9065Z" fill-rule="nonzero"/><path fill="#9e9e9e" d="M559.41876 341.89087L558.3719 341.969Q558.23126 341.344 557.98126 341.06274Q557.54376 340.60962 556.91876 340.60962Q556.41876 340.60962 556.02814 340.89087Q555.54376 341.26587 555.2469 341.969Q554.96564 342.6565 554.95 343.93774Q555.325 343.35962 555.8719 343.07837Q556.4344 342.79712 557.04376 342.79712Q558.09064 342.79712 558.825 343.57837Q559.575 344.35962 559.575 345.57837Q559.575 346.39087 559.21564 347.094Q558.8719 347.7815 558.2625 348.1565Q557.65314 348.51587 556.8875 348.51587Q555.5594 348.51587 554.73126 347.54712Q553.90314 346.57837 553.90314 344.35962Q553.90314 341.85962 554.825 340.73462Q555.6219 339.75024 556.98126 339.75024Q557.9969 339.75024 558.6375 340.32837Q559.29376 340.89087 559.41876 341.89087ZM555.1219 345.594Q555.1219 346.14087 555.34064 346.64087Q555.575 347.12524 555.98126 347.39087Q556.40314 347.6565 556.8719 347.6565Q557.52814 347.6565 558.0125 347.12524Q558.4969 346.57837 558.4969 345.6565Q558.4969 344.76587 558.0125 344.25024Q557.54376 343.73462 556.825 343.73462Q556.10626 343.73462 555.60626 344.25024Q555.1219 344.76587 555.1219 345.594ZM561.54376 348.37524L561.54376 347.17212L562.7469 347.17212L562.7469 348.37524L561.54376 348.37524ZM567.325 348.37524L567.325 346.31274L563.60626 346.31274L563.60626 345.344L567.52814 339.7815L568.3875 339.7815L568.3875 345.344L569.54376 345.344L569.54376 346.31274L568.3875 346.31274L568.3875 348.37524L567.325 348.37524ZM567.325 345.344L567.325 341.48462L564.6375 345.344L567.325 345.344ZM571.15314 341.844Q571.15314 340.92212 571.60626 340.2815Q572.075 339.64087 572.95 339.64087Q573.7625 339.64087 574.29376 340.219Q574.825 340.79712 574.825 341.9065Q574.825 343.00024 574.27814 343.594Q573.7469 344.17212 572.96564 344.17212Q572.1844 344.17212 571.66876 343.594Q571.15314 343.01587 571.15314 341.844ZM572.98126 340.35962Q572.59064 340.35962 572.325 340.70337Q572.075 341.04712 572.075 341.95337Q572.075 342.7815 572.325 343.12524Q572.59064 343.45337 572.98126 343.45337Q573.3875 343.45337 573.6375 343.10962Q573.90314 342.76587 573.90314 341.87524Q573.90314 341.0315 573.6375 340.70337Q573.3719 340.35962 572.98126 340.35962ZM572.98126 348.68774L577.6844 339.64087L578.54376 339.64087L573.85626 348.68774L572.98126 348.68774ZM576.7 346.35962Q576.7 345.43774 577.15314 344.79712Q577.6219 344.1565 578.5125 344.1565Q579.325 344.1565 579.85626 344.73462Q580.3875 345.29712 580.3875 346.42212Q580.3875 347.51587 579.84064 348.10962Q579.3094 348.68774 578.5125 348.68774Q577.7469 348.68774 577.21564 348.10962Q576.7 347.5315 576.7 346.35962ZM578.54376 344.87524Q578.1375 344.87524 577.8719 345.219Q577.6219 345.56274 577.6219 346.469Q577.6219 347.2815 577.8875 347.62524Q578.15314 347.969 578.54376 347.969Q578.9344 347.969 579.2 347.62524Q579.46564 347.2815 579.46564 346.37524Q579.46564 345.54712 579.2 345.219Q578.9344 344.87524 578.54376 344.87524Z" fill-rule="nonzero"/><path stroke="#757575" stroke-width="1.0" stroke-linecap="butt" d="M581.45 335.87524L472.95 335.87524L350.41867 335.87524" fill-rule="nonzero"/><path fill="#9e9e9e" d="M352.41867 335.87524C352.41867 334.77066 351.52322 333.87524 350.41867 333.87524C349.3141 333.87524 348.41867 334.77066 348.41867 335.87524C348.41867 336.9798 349.3141 337.87524 350.41867 337.87524C351.52322 337.87524 352.41867 336.9798 352.41867 335.87524" fill-rule="nonzero"/></svg>