<svg version="1.1" viewBox="0.0 0.0 600.0 371.0" fill="none" stroke="none" stroke-linecap="square" stroke-miterlimit="10" width="600" height="371" xmlns:xlink="http://www.w3.org/1999/xlink" xmlns="http://www.w3.org/2000/svg"><path fill="#ffffff" d="M0 0L600.0 0L600.0 371.0L0 371.0L0 0Z" fill-rule="nonzero"/><path fill="#4285f4" d="M300.0 18.55C376.20557 18.55 442.7396 70.15271 461.69998 143.96188L300.0 185.5Z" fill-rule="nonzero"/><path fill="#34a853" d="M299.99997 18.55C300.0 18.55 300.0 18.55 300.0 18.55L300.0 185.5Z" fill-rule="nonzero"/><path fill="#fbbc04" d="M133.80618 169.62813C141.98746 83.96224 213.94432 18.55001 299.99997 18.55L300.0 185.5Z" fill-rule="nonzero"/><path fill="#ea4335" d="M461.69998 143.96188C478.26883 208.4612 454.9219 276.6383 402.29288 317.44116C349.66385 358.24402 277.8198 363.86768 219.4829 331.7508C161.146 299.63394 127.47517 235.91995 133.80618 169.62813L300.0 185.5Z" fill-rule="nonzero"/><path fill="#1a1a1a" d="M19.534374 29.55L19.534374 20.95625L25.33125 20.95625L25.33125 21.971874L20.675 21.971874L20.675 24.628124L24.70625 24.628124L24.70625 25.64375L20.675 25.64375L20.675 29.55L19.534374 29.55ZM26.346874 22.175L26.346874 20.95625L27.409374 20.95625L27.409374 22.175L26.346874 22.175ZM26.346874 29.55L26.346874 23.33125L27.409374 23.33125L27.409374 29.55L26.346874 29.55ZM29.33125 29.55L29.33125 23.33125L30.284374 23.33125L30.284374 24.26875Q30.64375 23.6125 30.940624 23.409374Q31.253124 23.190624 31.628124 23.190624Q32.159374 23.190624 32.70625 23.51875L32.346874 24.503124Q31.95625 24.26875 31.58125 24.26875Q31.221874 24.26875 30.940624 24.4875Q30.675 24.690624 30.565624 25.065624Q30.378124 25.628124 30.378124 26.284374L30.378124 29.55L29.33125 29.55ZM32.925 27.690624L33.95625 27.534374Q34.05 28.159374 34.440624 28.4875Q34.846874 28.815624 35.58125 28.815624Q36.3 28.815624 36.64375 28.534374Q37.003124 28.2375 37.003124 27.83125Q37.003124 27.471874 36.690624 27.26875Q36.471874 27.128124 35.6125 26.909374Q34.45625 26.6125 34.003124 26.409374Q33.565624 26.190624 33.33125 25.815624Q33.096874 25.440624 33.096874 24.971874Q33.096874 24.565624 33.284374 24.20625Q33.471874 23.846874 33.8 23.6125Q34.05 23.440624 34.471874 23.315624Q34.89375 23.190624 35.39375 23.190624Q36.1125 23.190624 36.659374 23.409374Q37.221874 23.6125 37.4875 23.971874Q37.753124 24.33125 37.846874 24.925L36.815624 25.065624Q36.753124 24.596874 36.409374 24.33125Q36.08125 24.05 35.45625 24.05Q34.7375 24.05 34.425 24.3Q34.1125 24.534374 34.1125 24.8625Q34.1125 25.065624 34.2375 25.221874Q34.378124 25.39375 34.64375 25.503124Q34.8 25.565624 35.58125 25.76875Q36.70625 26.08125 37.14375 26.26875Q37.58125 26.45625 37.83125 26.815624Q38.08125 27.175 38.08125 27.721874Q38.08125 28.253124 37.76875 28.721874Q37.471874 29.175 36.89375 29.440624Q36.315624 29.690624 35.58125 29.690624Q34.3625 29.690624 33.721874 29.190624Q33.096874 28.675 32.925 27.690624ZM42.64375 28.6125L42.8 29.534374Q42.346874 29.628124 42.003124 29.628124Q41.425 29.628124 41.1125 29.45625Q40.8 29.26875 40.659374 28.971874Q40.534374 28.675 40.534374 27.721874L40.534374 24.14375L39.76875 24.14375L39.76875 23.33125L40.534374 23.33125L40.534374 21.784374L41.58125 21.159374L41.58125 23.33125L42.64375 23.33125L42.64375 24.14375L41.58125 24.14375L41.58125 27.784374Q41.58125 28.2375 41.628124 28.3625Q41.690624 28.4875 41.815624 28.565624Q41.940624 28.64375 42.175 28.64375Q42.3625 28.64375 42.64375 28.6125ZM48.64375 28.6125L48.8 29.534374Q48.346874 29.628124 48.003124 29.628124Q47.425 29.628124 47.1125 29.45625Q46.8 29.26875 46.659374 28.971874Q46.534374 28.675 46.534374 27.721874L46.534374 24.14375L45.76875 24.14375L45.76875 23.33125L46.534374 23.33125L46.534374 21.784374L47.58125 21.159374L47.58125 23.33125L48.64375 23.33125L48.64375 24.14375L47.58125 24.14375L47.58125 27.784374Q47.58125 28.2375 47.628124 28.3625Q47.690624 28.4875 47.815624 28.565624Q47.940624 28.64375 48.175 28.64375Q48.3625 28.64375 48.64375 28.6125ZM53.596874 27.55L54.690624 27.675Q54.440624 28.628124 53.7375 29.159374Q53.034374 29.690624 51.95625 29.690624Q50.596874 29.690624 49.784374 28.846874Q48.9875 28.003124 48.9875 26.4875Q48.9875 24.925 49.8 24.065624Q50.6125 23.190624 51.89375 23.190624Q53.14375 23.190624 53.925 24.034374Q54.721874 24.878124 54.721874 26.425Q54.721874 26.51875 54.721874 26.70625L50.08125 26.70625Q50.14375 27.7375 50.659374 28.284374Q51.175 28.815624 51.95625 28.815624Q52.534374 28.815624 52.940624 28.51875Q53.3625 28.20625 53.596874 27.55ZM50.14375 25.846874L53.6125 25.846874Q53.55 25.05 53.221874 24.659374Q52.70625 24.05 51.909374 24.05Q51.175 24.05 50.675 24.534374Q50.190624 25.01875 50.14375 25.846874ZM56.33125 29.55L56.33125 23.33125L57.284374 23.33125L57.284374 24.26875Q57.64375 23.6125 57.940624 23.409374Q58.253124 23.190624 58.628124 23.190624Q59.159374 23.190624 59.70625 23.51875L59.346874 24.503124Q58.95625 24.26875 58.58125 24.26875Q58.221874 24.26875 57.940624 24.4875Q57.675 24.690624 57.565624 25.065624Q57.378124 25.628124 57.378124 26.284374L57.378124 29.55L56.33125 29.55ZM60.346874 29.55L60.346874 23.33125L61.284374 23.33125L61.284374 24.20625Q61.58125 23.7375 62.065624 23.471874Q62.55 23.190624 63.175 23.190624Q63.8625 23.190624 64.3 23.471874Q64.75313 23.753124 64.925 24.26875Q65.675 23.190624 66.84688 23.190624Q67.78438 23.190624 68.26875 23.70625Q68.76875 24.20625 68.76875 25.284374L68.76875 29.55L67.72188 29.55L67.72188 25.628124Q67.72188 25.003124 67.6125 24.721874Q67.51875 24.440624 67.25313 24.26875Q66.9875 24.096874 66.6125 24.096874Q65.95625 24.096874 65.51875 24.534374Q65.09688 24.971874 65.09688 25.940624L65.09688 29.55L64.03438 29.55L64.03438 25.503124Q64.03438 24.8 63.76875 24.45625Q63.51875 24.096874 62.940624 24.096874Q62.4875 24.096874 62.1125 24.33125Q61.7375 24.565624 61.565624 25.01875Q61.39375 25.471874 61.39375 26.315624L61.39375 29.55L60.346874 29.55Z" fill-rule="nonzero"/><path fill="#9e9e9e" d="M19.05 42.315624Q19.05 40.784374 19.3625 39.8625Q19.675 38.925 20.284374 38.425Q20.909374 37.925 21.846874 37.925Q22.534374 37.925 23.05 38.20625Q23.58125 38.4875 23.925 39.01875Q24.26875 39.534374 24.45625 40.284374Q24.64375 41.034374 24.64375 42.315624Q24.64375 43.83125 24.33125 44.753124Q24.034374 45.675 23.409374 46.190624Q22.8 46.690624 21.846874 46.690624Q20.6125 46.690624 19.89375 45.8Q19.05 44.7375 19.05 42.315624ZM20.128124 42.315624Q20.128124 44.425 20.628124 45.128124Q21.128124 45.83125 21.846874 45.83125Q22.58125 45.83125 23.065624 45.128124Q23.565624 44.425 23.565624 42.315624Q23.565624 40.190624 23.065624 39.503124Q22.58125 38.8 21.83125 38.8Q21.1125 38.8 20.675 39.409374Q20.128124 40.190624 20.128124 42.315624ZM26.64375 46.55L26.64375 45.346874L27.846874 45.346874L27.846874 46.55L26.64375 46.55ZM29.05 42.315624Q29.05 40.784374 29.3625 39.8625Q29.675 38.925 30.284374 38.425Q30.909374 37.925 31.846874 37.925Q32.534374 37.925 33.05 38.20625Q33.58125 38.4875 33.925 39.01875Q34.26875 39.534374 34.45625 40.284374Q34.64375 41.034374 34.64375 42.315624Q34.64375 43.83125 34.33125 44.753124Q34.034374 45.675 33.409374 46.190624Q32.8 46.690624 31.846874 46.690624Q30.6125 46.690624 29.89375 45.8Q29.05 44.7375 29.05 42.315624ZM30.128124 42.315624Q30.128124 44.425 30.628124 45.128124Q31.128124 45.83125 31.846874 45.83125Q32.58125 45.83125 33.065624 45.128124Q33.565624 44.425 33.565624 42.315624Q33.565624 40.190624 33.065624 39.503124Q32.58125 38.8 31.83125 38.8Q31.1125 38.8 30.675 39.409374Q30.128124 40.190624 30.128124 42.315624ZM36.253124 40.01875Q36.253124 39.096874 36.70625 38.45625Q37.175 37.815624 38.05 37.815624Q38.8625 37.815624 39.39375 38.39375Q39.925 38.971874 39.925 40.08125Q39.925 41.175 39.378124 41.76875Q38.846874 42.346874 38.065624 42.346874Q37.284374 42.346874 36.76875 41.76875Q36.253124 41.190624 36.253124 40.01875ZM38.08125 38.534374Q37.690624 38.534374 37.425 38.878124Q37.175 39.221874 37.175 40.128124Q37.175 40.95625 37.425 41.3Q37.690624 41.628124 38.08125 41.628124Q38.4875 41.628124 38.7375 41.284374Q39.003124 40.940624 39.003124 40.05Q39.003124 39.20625 38.7375 38.878124Q38.471874 38.534374 38.08125 38.534374ZM38.08125 46.8625L42.784374 37.815624L43.64375 37.815624L38.95625 46.8625L38.08125 46.8625ZM41.8 44.534374Q41.8 43.6125 42.253124 42.971874Q42.721874 42.33125 43.6125 42.33125Q44.425 42.33125 44.95625 42.909374Q45.4875 43.471874 45.4875 44.596874Q45.4875 45.690624 44.940624 46.284374Q44.409374 46.8625 43.6125 46.8625Q42.846874 46.8625 42.315624 46.284374Q41.8 45.70625 41.8 44.534374ZM43.64375 43.05Q43.2375 43.05 42.971874 43.39375Q42.721874 43.7375 42.721874 44.64375Q42.721874 45.45625 42.9875 45.8Q43.253124 46.14375 43.64375 46.14375Q44.034374 46.14375 44.3 45.8Q44.565624 45.45625 44.565624 44.55Q44.565624 43.721874 44.3 43.39375Q44.034374 43.05 43.64375 43.05Z" fill-rule="nonzero"/><path stroke="#757575" stroke-width="1.0" stroke-linecap="butt" d="M18.55 34.05L127.05 34.05L300.0 26.8975" fill-rule="nonzero"/><path fill="#9e9e9e" d="M302.0 26.8975C302.0 25.79293 301.10455 24.8975 300.0 24.8975C298.89542 24.8975 298.0 25.79293 298.0 26.8975C298.0 28.00207 298.89542 28.8975 300.0 28.8975C301.10455 28.8975 302.0 28.00207 302.0 26.8975" fill-rule="nonzero"/><path fill="#1a1a1a" d="M19.596874 63.641144L19.596874 58.234894L18.659374 58.234894L18.659374 57.422394L19.596874 57.422394L19.596874 56.75052Q19.596874 56.12552 19.70625 55.828644Q19.8625 55.40677 20.2375 55.15677Q20.628124 54.90677 21.315624 54.90677Q21.76875 54.90677 22.3 55.016144L22.14375 55.922394Q21.815624 55.87552 21.51875 55.87552Q21.034374 55.87552 20.83125 56.078644Q20.64375 56.28177 20.64375 56.84427L20.64375 57.422394L21.8625 57.422394L21.8625 58.234894L20.64375 58.234894L20.64375 63.641144L19.596874 63.641144ZM21.95625 60.53177Q21.95625 58.797394 22.909374 57.96927Q23.70625 57.28177 24.8625 57.28177Q26.14375 57.28177 26.95625 58.12552Q27.784374 58.953644 27.784374 60.43802Q27.784374 61.641144 27.425 62.328644Q27.065624 63.016144 26.3625 63.40677Q25.675 63.78177 24.8625 63.78177Q23.565624 63.78177 22.753124 62.953644Q21.95625 62.109894 21.95625 60.53177ZM23.034374 60.53177Q23.034374 61.71927 23.55 62.31302Q24.08125 62.90677 24.8625 62.90677Q25.659374 62.90677 26.175 62.31302Q26.690624 61.71927 26.690624 60.50052Q26.690624 59.34427 26.159374 58.75052Q25.64375 58.15677 24.8625 58.15677Q24.08125 58.15677 23.55 58.75052Q23.034374 59.328644 23.034374 60.53177ZM33.425 63.641144L33.425 62.71927Q32.690624 63.78177 31.440624 63.78177Q30.89375 63.78177 30.409374 63.578644Q29.940624 63.359894 29.70625 63.047394Q29.471874 62.71927 29.378124 62.25052Q29.315624 61.953644 29.315624 61.266144L29.315624 57.422394L30.378124 57.422394L30.378124 60.87552Q30.378124 61.68802 30.440624 61.984894Q30.534374 62.391144 30.846874 62.641144Q31.175 62.87552 31.659374 62.87552Q32.128124 62.87552 32.534374 62.641144Q32.95625 62.391144 33.128124 61.96927Q33.315624 61.547394 33.315624 60.75052L33.315624 57.422394L34.3625 57.422394L34.3625 63.641144L33.425 63.641144ZM36.33125 63.641144L36.33125 57.422394L37.284374 57.422394L37.284374 58.359894Q37.64375 57.703644 37.940624 57.50052Q38.253124 57.28177 38.628124 57.28177Q39.159374 57.28177 39.70625 57.609894L39.346874 58.59427Q38.95625 58.359894 38.58125 58.359894Q38.221874 58.359894 37.940624 58.578644Q37.675 58.78177 37.565624 59.15677Q37.378124 59.71927 37.378124 60.37552L37.378124 63.641144L36.33125 63.641144ZM42.64375 62.703644L42.8 63.62552Q42.346874 63.71927 42.003124 63.71927Q41.425 63.71927 41.1125 63.547394Q40.8 63.359894 40.659374 63.06302Q40.534374 62.766144 40.534374 61.81302L40.534374 58.234894L39.76875 58.234894L39.76875 57.422394L40.534374 57.422394L40.534374 55.87552L41.58125 55.25052L41.58125 57.422394L42.64375 57.422394L42.64375 58.234894L41.58125 58.234894L41.58125 61.87552Q41.58125 62.328644 41.628124 62.453644Q41.690624 62.578644 41.815624 62.65677Q41.940624 62.734894 42.175 62.734894Q42.3625 62.734894 42.64375 62.703644ZM43.346874 63.641144L43.346874 55.047394L44.39375 55.047394L44.39375 58.12552Q45.128124 57.28177 46.253124 57.28177Q46.95625 57.28177 47.45625 57.56302Q47.971874 57.828644 48.190624 58.31302Q48.409374 58.78177 48.409374 59.703644L48.409374 63.641144L47.3625 63.641144L47.3625 59.703644Q47.3625 58.90677 47.01875 58.547394Q46.675 58.18802 46.05 58.18802Q45.58125 58.18802 45.159374 58.43802Q44.753124 58.672394 44.565624 59.09427Q44.39375 59.50052 44.39375 60.234894L44.39375 63.641144L43.346874 63.641144ZM55.64375 62.703644L55.8 63.62552Q55.346874 63.71927 55.003124 63.71927Q54.425 63.71927 54.1125 63.547394Q53.8 63.359894 53.659374 63.06302Q53.534374 62.766144 53.534374 61.81302L53.534374 58.234894L52.76875 58.234894L52.76875 57.422394L53.534374 57.422394L53.534374 55.87552L54.58125 55.25052L54.58125 57.422394L55.64375 57.422394L55.64375 58.234894L54.58125 58.234894L54.58125 61.87552Q54.58125 62.328644 54.628124 62.453644Q54.690624 62.578644 54.815624 62.65677Q54.940624 62.734894 55.175 62.734894Q55.3625 62.734894 55.64375 62.703644ZM60.596874 61.641144L61.690624 61.766144Q61.440624 62.71927 60.7375 63.25052Q60.034374 63.78177 58.95625 63.78177Q57.596874 63.78177 56.784374 62.93802Q55.9875 62.09427 55.9875 60.578644Q55.9875 59.016144 56.8 58.15677Q57.6125 57.28177 58.89375 57.28177Q60.14375 57.28177 60.925 58.12552Q61.721874 58.96927 61.721874 60.516144Q61.721874 60.609894 61.721874 60.797394L57.08125 60.797394Q57.14375 61.828644 57.659374 62.37552Q58.175 62.90677 58.95625 62.90677Q59.534374 62.90677 59.940624 62.609894Q60.3625 62.297394 60.596874 61.641144ZM57.14375 59.93802L60.6125 59.93802Q60.55 59.141144 60.221874 58.75052Q59.70625 58.141144 58.909374 58.141144Q58.175 58.141144 57.675 58.62552Q57.190624 59.109894 57.14375 59.93802ZM63.33125 63.641144L63.33125 57.422394L64.28438 57.422394L64.28438 58.359894Q64.64375 57.703644 64.94063 57.50052Q65.25313 57.28177 65.62813 57.28177Q66.15938 57.28177 66.70625 57.609894L66.34688 58.59427Q65.95625 58.359894 65.58125 58.359894Q65.22188 58.359894 64.94063 58.578644Q64.675 58.78177 64.56563 59.15677Q64.37813 59.71927 64.37813 60.37552L64.37813 63.641144L63.33125 63.641144ZM67.34688 63.641144L67.34688 57.422394L68.28438 57.422394L68.28438 58.297394Q68.58125 57.828644 69.06563 57.56302Q69.55 57.28177 70.175 57.28177Q70.8625 57.28177 71.3 57.56302Q71.75313 57.84427 71.925 58.359894Q72.675 57.28177 73.84688 57.28177Q74.78438 57.28177 75.26875 57.797394Q75.76875 58.297394 75.76875 59.37552L75.76875 63.641144L74.72188 63.641144L74.72188 59.71927Q74.72188 59.09427 74.6125 58.81302Q74.51875 58.53177 74.25313 58.359894Q73.9875 58.18802 73.6125 58.18802Q72.95625 58.18802 72.51875 58.62552Q72.09688 59.06302 72.09688 60.03177L72.09688 63.641144L71.03438 63.641144L71.03438 59.59427Q71.03438 58.891144 70.76875 58.547394Q70.51875 58.18802 69.94063 58.18802Q69.4875 58.18802 69.1125 58.422394Q68.7375 58.65677 68.56563 59.109894Q68.39375 59.56302 68.39375 60.40677L68.39375 63.641144L67.34688 63.641144Z" fill-rule="nonzero"/><path fill="#9e9e9e" d="M24.596874 79.62552L24.596874 80.64114L18.909374 80.64114Q18.909374 80.26614 19.034374 79.90677Q19.253124 79.32864 19.721874 78.76614Q20.20625 78.20364 21.1125 77.46927Q22.51875 76.31302 23.003124 75.64114Q23.503124 74.96927 23.503124 74.37552Q23.503124 73.75052 23.05 73.32864Q22.596874 72.89114 21.878124 72.89114Q21.1125 72.89114 20.659374 73.34427Q20.20625 73.79739 20.190624 74.60989L19.1125 74.50052Q19.221874 73.28177 19.940624 72.65677Q20.675 72.01614 21.909374 72.01614Q23.14375 72.01614 23.8625 72.70364Q24.58125 73.39114 24.58125 74.40677Q24.58125 74.92239 24.3625 75.42239Q24.159374 75.90677 23.659374 76.46927Q23.175 77.01614 22.05 77.96927Q21.096874 78.76614 20.815624 79.06302Q20.55 79.34427 20.378124 79.62552L24.596874 79.62552ZM26.05 78.37552L27.1125 78.23489Q27.284374 79.12552 27.721874 79.53177Q28.159374 79.92239 28.784374 79.92239Q29.534374 79.92239 30.05 79.40677Q30.565624 78.89114 30.565624 78.12552Q30.565624 77.40677 30.08125 76.93802Q29.6125 76.45364 28.878124 76.45364Q28.58125 76.45364 28.128124 76.57864L28.253124 75.64114Q28.3625 75.65677 28.425 75.65677Q29.096874 75.65677 29.628124 75.31302Q30.175 74.95364 30.175 74.21927Q30.175 73.64114 29.784374 73.26614Q29.39375 72.87552 28.76875 72.87552Q28.159374 72.87552 27.7375 73.26614Q27.33125 73.65677 27.221874 74.42239L26.159374 74.23489Q26.346874 73.18802 27.034374 72.60989Q27.721874 72.01614 28.7375 72.01614Q29.440624 72.01614 30.034374 72.32864Q30.628124 72.62552 30.940624 73.14114Q31.253124 73.65677 31.253124 74.25052Q31.253124 74.79739 30.95625 75.26614Q30.659374 75.71927 30.08125 75.98489Q30.83125 76.15677 31.253124 76.71927Q31.675 77.26614 31.675 78.10989Q31.675 79.23489 30.846874 80.01614Q30.034374 80.79739 28.784374 80.79739Q27.659374 80.79739 26.909374 80.12552Q26.159374 79.43802 26.05 78.37552ZM33.64375 80.64114L33.64375 79.43802L34.846874 79.43802L34.846874 80.64114L33.64375 80.64114ZM36.05 78.39114L37.159374 78.29739Q37.284374 79.10989 37.721874 79.51614Q38.175 79.92239 38.815624 79.92239Q39.565624 79.92239 40.096874 79.34427Q40.628124 78.76614 40.628124 77.82864Q40.628124 76.92239 40.1125 76.40677Q39.6125 75.87552 38.784374 75.87552Q38.284374 75.87552 37.8625 76.10989Q37.45625 76.34427 37.221874 76.70364L36.2375 76.57864L37.065624 72.17239L41.346874 72.17239L41.346874 73.17239L37.909374 73.17239L37.45625 75.48489Q38.221874 74.93802 39.065624 74.93802Q40.190624 74.93802 40.95625 75.71927Q41.7375 76.50052 41.7375 77.73489Q41.7375 78.89114 41.065624 79.75052Q40.2375 80.78177 38.815624 80.78177Q37.64375 80.78177 36.89375 80.12552Q36.159374 79.46927 36.05 78.39114ZM43.253124 74.10989Q43.253124 73.18802 43.70625 72.54739Q44.175 71.90677 45.05 71.90677Q45.8625 71.90677 46.39375 72.48489Q46.925 73.06302 46.925 74.17239Q46.925 75.26614 46.378124 75.85989Q45.846874 76.43802 45.065624 76.43802Q44.284374 76.43802 43.76875 75.85989Q43.253124 75.28177 43.253124 74.10989ZM45.08125 72.62552Q44.690624 72.62552 44.425 72.96927Q44.175 73.31302 44.175 74.21927Q44.175 75.04739 44.425 75.39114Q44.690624 75.71927 45.08125 75.71927Q45.4875 75.71927 45.7375 75.37552Q46.003124 75.03177 46.003124 74.14114Q46.003124 73.29739 45.7375 72.96927Q45.471874 72.62552 45.08125 72.62552ZM45.08125 80.95364L49.784374 71.90677L50.64375 71.90677L45.95625 80.95364L45.08125 80.95364ZM48.8 78.62552Q48.8 77.70364 49.253124 77.06302Q49.721874 76.42239 50.6125 76.42239Q51.425 76.42239 51.95625 77.00052Q52.4875 77.56302 52.4875 78.68802Q52.4875 79.78177 51.940624 80.37552Q51.409374 80.95364 50.6125 80.95364Q49.846874 80.95364 49.315624 80.37552Q48.8 79.79739 48.8 78.62552ZM50.64375 77.14114Q50.2375 77.14114 49.971874 77.48489Q49.721874 77.82864 49.721874 78.73489Q49.721874 79.54739 49.9875 79.89114Q50.253124 80.23489 50.64375 80.23489Q51.034374 80.23489 51.3 79.89114Q51.565624 79.54739 51.565624 78.64114Q51.565624 77.81302 51.3 77.48489Q51.034374 77.14114 50.64375 77.14114Z" fill-rule="nonzero"/><path stroke="#757575" stroke-width="1.0" stroke-linecap="butt" d="M18.55 68.14114L127.05 68.14114L193.31517 68.14114" fill-rule="nonzero"/><path fill="#9e9e9e" d="M195.31517 68.14114C195.31517 67.036575 194.41974 66.14114 193.31517 66.14114C192.2106 66.14114 191.31517 67.036575 191.31517 68.14114C191.31517 69.24571 192.2106 70.14114 193.31517 70.14114C194.41974 70.14114 195.31517 69.24571 195.31517 68.14114" fill-rule="nonzero"/><path fill="#1a1a1a" d="M512.825 53.81425L513.85626 53.658Q513.95 54.283 514.34064 54.611126Q514.7469 54.93925 515.48126 54.93925Q516.2 54.93925 516.54376 54.658Q516.90314 54.361126 516.90314 53.954876Q516.90314 53.5955 516.59064 53.392376Q516.3719 53.25175 515.5125 53.033Q514.35626 52.736126 513.90314 52.533Q513.46564 52.31425 513.23126 51.93925Q512.9969 51.56425 512.9969 51.0955Q512.9969 50.68925 513.1844 50.329876Q513.3719 49.9705 513.7 49.736126Q513.95 49.56425 514.3719 49.43925Q514.79376 49.31425 515.29376 49.31425Q516.0125 49.31425 516.5594 49.533Q517.1219 49.736126 517.3875 50.0955Q517.65314 50.454876 517.7469 51.048626L516.71564 51.18925Q516.65314 50.7205 516.3094 50.454876Q515.98126 50.173626 515.35626 50.173626Q514.6375 50.173626 514.325 50.423626Q514.0125 50.658 514.0125 50.986126Q514.0125 51.18925 514.1375 51.3455Q514.27814 51.517376 514.54376 51.62675Q514.7 51.68925 515.48126 51.892376Q516.60626 52.204876 517.04376 52.392376Q517.48126 52.579876 517.73126 52.93925Q517.98126 53.298626 517.98126 53.8455Q517.98126 54.37675 517.66876 54.8455Q517.3719 55.298626 516.79376 55.56425Q516.21564 55.81425 515.48126 55.81425Q514.2625 55.81425 513.6219 55.31425Q512.9969 54.798626 512.825 53.81425ZM524.4969 53.673626L525.59064 53.798626Q525.34064 54.75175 524.6375 55.283Q523.9344 55.81425 522.85626 55.81425Q521.4969 55.81425 520.6844 54.9705Q519.8875 54.12675 519.8875 52.611126Q519.8875 51.048626 520.7 50.18925Q521.5125 49.31425 522.79376 49.31425Q524.04376 49.31425 524.825 50.158Q525.6219 51.00175 525.6219 52.548626Q525.6219 52.642376 525.6219 52.829876L520.98126 52.829876Q521.04376 53.861126 521.5594 54.408Q522.075 54.93925 522.85626 54.93925Q523.4344 54.93925 523.84064 54.642376Q524.2625 54.329876 524.4969 53.673626ZM521.04376 51.9705L524.5125 51.9705Q524.45 51.173626 524.1219 50.783Q523.60626 50.173626 522.8094 50.173626Q522.075 50.173626 521.575 50.658Q521.09064 51.142376 521.04376 51.9705ZM531.3094 53.392376L532.34064 53.533Q532.16876 54.5955 531.46564 55.204876Q530.7625 55.81425 529.7469 55.81425Q528.46564 55.81425 527.6844 54.986126Q526.91876 54.142376 526.91876 52.579876Q526.91876 51.579876 527.2469 50.829876Q527.59064 50.06425 528.2625 49.68925Q528.95 49.31425 529.7625 49.31425Q530.7625 49.31425 531.40314 49.829876Q532.0594 50.329876 532.2469 51.283L531.21564 51.43925Q531.075 50.81425 530.7 50.50175Q530.325 50.173626 529.79376 50.173626Q528.9969 50.173626 528.4969 50.75175Q527.9969 51.31425 527.9969 52.548626Q527.9969 53.81425 528.48126 54.37675Q528.96564 54.93925 529.73126 54.93925Q530.35626 54.93925 530.7625 54.56425Q531.1844 54.18925 531.3094 53.392376ZM532.85626 52.56425Q532.85626 50.829876 533.8094 50.00175Q534.60626 49.31425 535.7625 49.31425Q537.04376 49.31425 537.85626 50.158Q538.6844 50.986126 538.6844 52.4705Q538.6844 53.673626 538.325 54.361126Q537.96564 55.048626 537.2625 55.43925Q536.575 55.81425 535.7625 55.81425Q534.46564 55.81425 533.65314 54.986126Q532.85626 54.142376 532.85626 52.56425ZM533.9344 52.56425Q533.9344 53.75175 534.45 54.3455Q534.98126 54.93925 535.7625 54.93925Q536.5594 54.93925 537.075 54.3455Q537.59064 53.75175 537.59064 52.533Q537.59064 51.37675 537.0594 50.783Q536.54376 50.18925 535.7625 50.18925Q534.98126 50.18925 534.45 50.783Q533.9344 51.361126 533.9344 52.56425ZM540.2469 55.673626L540.2469 49.454876L541.1844 49.454876L541.1844 50.329876Q541.8719 49.31425 543.16876 49.31425Q543.73126 49.31425 544.2 49.517376Q544.6844 49.7205 544.91876 50.048626Q545.15314 50.37675 545.2469 50.81425Q545.29376 51.111126 545.29376 51.8455L545.29376 55.673626L544.2469 55.673626L544.2469 51.892376Q544.2469 51.236126 544.1219 50.923626Q543.9969 50.611126 543.6844 50.423626Q543.3719 50.2205 542.95 50.2205Q542.27814 50.2205 541.77814 50.658Q541.29376 51.079876 541.29376 52.267376L541.29376 55.673626L540.2469 55.673626ZM551.27814 55.673626L551.27814 54.892376Q550.6844 55.81425 549.54376 55.81425Q548.79376 55.81425 548.16876 55.408Q547.54376 54.986126 547.2 54.25175Q546.85626 53.517376 546.85626 52.56425Q546.85626 51.642376 547.16876 50.87675Q547.48126 50.111126 548.10626 49.7205Q548.73126 49.31425 549.4969 49.31425Q550.0594 49.31425 550.4969 49.548626Q550.9344 49.783 551.21564 50.158L551.21564 47.079876L552.2625 47.079876L552.2625 55.673626L551.27814 55.673626ZM547.95 52.56425Q547.95 53.767376 548.45 54.361126Q548.95 54.93925 549.6375 54.93925Q550.325 54.93925 550.8094 54.37675Q551.29376 53.81425 551.29376 52.658Q551.29376 51.37675 550.79376 50.783Q550.3094 50.18925 549.59064 50.18925Q548.8875 50.18925 548.41876 50.767376Q547.95 51.329876 547.95 52.56425ZM559.54376 54.736126L559.7 55.658Q559.2469 55.75175 558.90314 55.75175Q558.325 55.75175 558.0125 55.579876Q557.7 55.392376 557.5594 55.0955Q557.4344 54.798626 557.4344 53.8455L557.4344 50.267376L556.66876 50.267376L556.66876 49.454876L557.4344 49.454876L557.4344 47.908L558.48126 47.283L558.48126 49.454876L559.54376 49.454876L559.54376 50.267376L558.48126 50.267376L558.48126 53.908Q558.48126 54.361126 558.52814 54.486126Q558.59064 54.611126 558.71564 54.68925Q558.84064 54.767376 559.075 54.767376Q559.2625 54.767376 559.54376 54.736126ZM564.4969 53.673626L565.59064 53.798626Q565.34064 54.75175 564.6375 55.283Q563.9344 55.81425 562.85626 55.81425Q561.4969 55.81425 560.6844 54.9705Q559.8875 54.12675 559.8875 52.611126Q559.8875 51.048626 560.7 50.18925Q561.5125 49.31425 562.79376 49.31425Q564.04376 49.31425 564.825 50.158Q565.6219 51.00175 565.6219 52.548626Q565.6219 52.642376 565.6219 52.829876L560.98126 52.829876Q561.04376 53.861126 561.5594 54.408Q562.075 54.93925 562.85626 54.93925Q563.4344 54.93925 563.84064 54.642376Q564.2625 54.329876 564.4969 53.673626ZM561.04376 51.9705L564.5125 51.9705Q564.45 51.173626 564.1219 50.783Q563.60626 50.173626 562.8094 50.173626Q562.075 50.173626 561.575 50.658Q561.09064 51.142376 561.04376 51.9705ZM567.23126 55.673626L567.23126 49.454876L568.1844 49.454876L568.1844 50.392376Q568.54376 49.736126 568.84064 49.533Q569.15314 49.31425 569.52814 49.31425Q570.0594 49.31425 570.60626 49.642376L570.2469 50.62675Q569.85626 50.392376 569.48126 50.392376Q569.1219 50.392376 568.84064 50.611126Q568.575 50.81425 568.46564 51.18925Q568.27814 51.75175 568.27814 52.408L568.27814 55.673626L567.23126 55.673626ZM571.2469 55.673626L571.2469 49.454876L572.1844 49.454876L572.1844 50.329876Q572.48126 49.861126 572.96564 49.5955Q573.45 49.31425 574.075 49.31425Q574.7625 49.31425 575.2 49.5955Q575.65314 49.87675 575.825 50.392376Q576.575 49.31425 577.7469 49.31425Q578.6844 49.31425 579.16876 49.829876Q579.66876 50.329876 579.66876 51.408L579.66876 55.673626L578.6219 55.673626L578.6219 51.75175Q578.6219 51.12675 578.5125 50.8455Q578.41876 50.56425 578.15314 50.392376Q577.8875 50.2205 577.5125 50.2205Q576.85626 50.2205 576.41876 50.658Q575.9969 51.0955 575.9969 52.06425L575.9969 55.673626L574.9344 55.673626L574.9344 51.62675Q574.9344 50.923626 574.66876 50.579876Q574.41876 50.2205 573.84064 50.2205Q573.3875 50.2205 573.0125 50.454876Q572.6375 50.68925 572.46564 51.142376Q572.29376 51.5955 572.29376 52.43925L572.29376 55.673626L571.2469 55.673626Z" fill-rule="nonzero"/><path fill="#9e9e9e" d="M552.4969 71.658005L552.4969 72.67363L546.8094 72.67363Q546.8094 72.29863 546.9344 71.939255Q547.15314 71.36113 547.6219 70.79863Q548.10626 70.23613 549.0125 69.501755Q550.41876 68.345505 550.90314 67.67363Q551.40314 67.001755 551.40314 66.408005Q551.40314 65.783005 550.95 65.36113Q550.4969 64.92363 549.77814 64.92363Q549.0125 64.92363 548.5594 65.376755Q548.10626 65.82988 548.09064 66.64238L547.0125 66.533005Q547.1219 65.314255 547.84064 64.689255Q548.575 64.04863 549.8094 64.04863Q551.04376 64.04863 551.7625 64.73613Q552.48126 65.42363 552.48126 66.439255Q552.48126 66.95488 552.2625 67.45488Q552.0594 67.939255 551.5594 68.501755Q551.075 69.04863 549.95 70.001755Q548.9969 70.79863 548.71564 71.095505Q548.45 71.376755 548.27814 71.658005L552.4969 71.658005ZM557.91876 72.67363L556.8719 72.67363L556.8719 65.95488Q556.48126 66.314255 555.85626 66.689255Q555.2469 67.04863 554.7625 67.220505L554.7625 66.20488Q555.6375 65.783005 556.29376 65.20488Q556.96564 64.61113 557.2469 64.04863L557.91876 64.04863L557.91876 72.67363ZM561.54376 72.67363L561.54376 71.470505L562.7469 71.470505L562.7469 72.67363L561.54376 72.67363ZM563.95 68.439255Q563.95 66.908005 564.2625 65.98613Q564.575 65.04863 565.1844 64.54863Q565.8094 64.04863 566.7469 64.04863Q567.4344 64.04863 567.95 64.32988Q568.48126 64.61113 568.825 65.14238Q569.16876 65.658005 569.35626 66.408005Q569.54376 67.158005 569.54376 68.439255Q569.54376 69.95488 569.23126 70.876755Q568.9344 71.79863 568.3094 72.314255Q567.7 72.814255 566.7469 72.814255Q565.5125 72.814255 564.79376 71.92363Q563.95 70.86113 563.95 68.439255ZM565.02814 68.439255Q565.02814 70.54863 565.52814 71.251755Q566.02814 71.95488 566.7469 71.95488Q567.48126 71.95488 567.96564 71.251755Q568.46564 70.54863 568.46564 68.439255Q568.46564 66.314255 567.96564 65.626755Q567.48126 64.92363 566.73126 64.92363Q566.0125 64.92363 565.575 65.533005Q565.02814 66.314255 565.02814 68.439255ZM571.15314 66.14238Q571.15314 65.220505 571.60626 64.57988Q572.075 63.939255 572.95 63.939255Q573.7625 63.939255 574.29376 64.51738Q574.825 65.095505 574.825 66.20488Q574.825 67.29863 574.27814 67.89238Q573.7469 68.470505 572.96564 68.470505Q572.1844 68.470505 571.66876 67.89238Q571.15314 67.314255 571.15314 66.14238ZM572.98126 64.658005Q572.59064 64.658005 572.325 65.001755Q572.075 65.345505 572.075 66.251755Q572.075 67.07988 572.325 67.42363Q572.59064 67.751755 572.98126 67.751755Q573.3875 67.751755 573.6375 67.408005Q573.90314 67.064255 573.90314 66.17363Q573.90314 65.32988 573.6375 65.001755Q573.3719 64.658005 572.98126 64.658005ZM572.98126 72.98613L577.6844 63.939255L578.54376 63.939255L573.85626 72.98613L572.98126 72.98613ZM576.7 70.658005Q576.7 69.73613 577.15314 69.095505Q577.6219 68.45488 578.5125 68.45488Q579.325 68.45488 579.85626 69.033005Q580.3875 69.595505 580.3875 70.720505Q580.3875 71.814255 579.84064 72.408005Q579.3094 72.98613 578.5125 72.98613Q577.7469 72.98613 577.21564 72.408005Q576.7 71.82988 576.7 70.658005ZM578.54376 69.17363Q578.1375 69.17363 577.8719 69.51738Q577.6219 69.86113 577.6219 70.76738Q577.6219 71.57988 577.8875 71.92363Q578.15314 72.26738 578.54376 72.26738Q578.9344 72.26738 579.2 71.92363Q579.46564 71.57988 579.46564 70.67363Q579.46564 69.845505 579.2 69.51738Q578.9344 69.17363 578.54376 69.17363Z" fill-rule="nonzero"/><path stroke="#757575" stroke-width="1.0" stroke-linecap="butt" d="M581.45 60.173626L472.95 60.173626L397.2011 60.173626" fill-rule="nonzero"/><path fill="#9e9e9e" d="M399.2011 60.173626C399.2011 59.069057 398.30566 58.173626 397.2011 58.173626C396.09653 58.173626 395.2011 59.069057 395.2011 60.173626C395.2011 61.278194 396.09653 62.173626 397.2011 62.173626C398.30566 62.173626 399.2011 61.278194 399.2011 60.173626" fill-rule="nonzero"/><path fill="#1a1a1a" d="M532.54376 331.5125L532.7 332.4344Q532.2469 332.52814 531.90314 332.52814Q531.325 332.52814 531.0125 332.35626Q530.7 332.16876 530.5594 331.8719Q530.4344 331.575 530.4344 330.6219L530.4344 327.04376L529.66876 327.04376L529.66876 326.23126L530.4344 326.23126L530.4344 324.6844L531.48126 324.0594L531.48126 326.23126L532.54376 326.23126L532.54376 327.04376L531.48126 327.04376L531.48126 330.6844Q531.48126 331.1375 531.52814 331.2625Q531.59064 331.3875 531.71564 331.46564Q531.84064 331.54376 532.075 331.54376Q532.2625 331.54376 532.54376 331.5125ZM533.2469 332.45L533.2469 323.85626L534.29376 323.85626L534.29376 326.9344Q535.02814 326.09064 536.15314 326.09064Q536.85626 326.09064 537.35626 326.3719Q537.8719 326.6375 538.09064 327.1219Q538.3094 327.59064 538.3094 328.5125L538.3094 332.45L537.2625 332.45L537.2625 328.5125Q537.2625 327.71564 536.91876 327.35626Q536.575 326.9969 535.95 326.9969Q535.48126 326.9969 535.0594 327.2469Q534.65314 327.48126 534.46564 327.90314Q534.29376 328.3094 534.29376 329.04376L534.29376 332.45L533.2469 332.45ZM540.2469 325.075L540.2469 323.85626L541.3094 323.85626L541.3094 325.075L540.2469 325.075ZM540.2469 332.45L540.2469 326.23126L541.3094 326.23126L541.3094 332.45L540.2469 332.45ZM543.23126 332.45L543.23126 326.23126L544.1844 326.23126L544.1844 327.16876Q544.54376 326.5125 544.84064 326.3094Q545.15314 326.09064 545.52814 326.09064Q546.0594 326.09064 546.60626 326.41876L546.2469 327.40314Q545.85626 327.16876 545.48126 327.16876Q545.1219 327.16876 544.84064 327.3875Q544.575 327.59064 544.46564 327.96564Q544.27814 328.52814 544.27814 329.1844L544.27814 332.45L543.23126 332.45ZM551.27814 332.45L551.27814 331.66876Q550.6844 332.59064 549.54376 332.59064Q548.79376 332.59064 548.16876 332.1844Q547.54376 331.7625 547.2 331.02814Q546.85626 330.29376 546.85626 329.34064Q546.85626 328.41876 547.16876 327.65314Q547.48126 326.8875 548.10626 326.4969Q548.73126 326.09064 549.4969 326.09064Q550.0594 326.09064 550.4969 326.325Q550.9344 326.5594 551.21564 326.9344L551.21564 323.85626L552.2625 323.85626L552.2625 332.45L551.27814 332.45ZM547.95 329.34064Q547.95 330.54376 548.45 331.1375Q548.95 331.71564 549.6375 331.71564Q550.325 331.71564 550.8094 331.15314Q551.29376 330.59064 551.29376 329.4344Q551.29376 328.15314 550.79376 327.5594Q550.3094 326.96564 549.59064 326.96564Q548.8875 326.96564 548.41876 327.54376Q547.95 328.10626 547.95 329.34064ZM559.54376 331.5125L559.7 332.4344Q559.2469 332.52814 558.90314 332.52814Q558.325 332.52814 558.0125 332.35626Q557.7 332.16876 557.5594 331.8719Q557.4344 331.575 557.4344 330.6219L557.4344 327.04376L556.66876 327.04376L556.66876 326.23126L557.4344 326.23126L557.4344 324.6844L558.48126 324.0594L558.48126 326.23126L559.54376 326.23126L559.54376 327.04376L558.48126 327.04376L558.48126 330.6844Q558.48126 331.1375 558.52814 331.2625Q558.59064 331.3875 558.71564 331.46564Q558.84064 331.54376 559.075 331.54376Q559.2625 331.54376 559.54376 331.5125ZM564.4969 330.45L565.59064 330.575Q565.34064 331.52814 564.6375 332.0594Q563.9344 332.59064 562.85626 332.59064Q561.4969 332.59064 560.6844 331.7469Q559.8875 330.90314 559.8875 329.3875Q559.8875 327.825 560.7 326.96564Q561.5125 326.09064 562.79376 326.09064Q564.04376 326.09064 564.825 326.9344Q565.6219 327.77814 565.6219 329.325Q565.6219 329.41876 565.6219 329.60626L560.98126 329.60626Q561.04376 330.6375 561.5594 331.1844Q562.075 331.71564 562.85626 331.71564Q563.4344 331.71564 563.84064 331.41876Q564.2625 331.10626 564.4969 330.45ZM561.04376 328.7469L564.5125 328.7469Q564.45 327.95 564.1219 327.5594Q563.60626 326.95 562.8094 326.95Q562.075 326.95 561.575 327.4344Q561.09064 327.91876 561.04376 328.7469ZM567.23126 332.45L567.23126 326.23126L568.1844 326.23126L568.1844 327.16876Q568.54376 326.5125 568.84064 326.3094Q569.15314 326.09064 569.52814 326.09064Q570.0594 326.09064 570.60626 326.41876L570.2469 327.40314Q569.85626 327.16876 569.48126 327.16876Q569.1219 327.16876 568.84064 327.3875Q568.575 327.59064 568.46564 327.96564Q568.27814 328.52814 568.27814 329.1844L568.27814 332.45L567.23126 332.45ZM571.2469 332.45L571.2469 326.23126L572.1844 326.23126L572.1844 327.10626Q572.48126 326.6375 572.96564 326.3719Q573.45 326.09064 574.075 326.09064Q574.7625 326.09064 575.2 326.3719Q575.65314 326.65314 575.825 327.16876Q576.575 326.09064 577.7469 326.09064Q578.6844 326.09064 579.16876 326.60626Q579.66876 327.10626 579.66876 328.1844L579.66876 332.45L578.6219 332.45L578.6219 328.52814Q578.6219 327.90314 578.5125 327.6219Q578.41876 327.34064 578.15314 327.16876Q577.8875 326.9969 577.5125 326.9969Q576.85626 326.9969 576.41876 327.4344Q575.9969 327.8719 575.9969 328.84064L575.9969 332.45L574.9344 332.45L574.9344 328.40314Q574.9344 327.7 574.66876 327.35626Q574.41876 326.9969 573.84064 326.9969Q573.3875 326.9969 573.0125 327.23126Q572.6375 327.46564 572.46564 327.91876Q572.29376 328.3719 572.29376 329.21564L572.29376 332.45L571.2469 332.45Z" fill-rule="nonzero"/><path fill="#9e9e9e" d="M546.95 347.2L548.0594 347.10626Q548.1844 347.91876 548.6219 348.325Q549.075 348.73126 549.71564 348.73126Q550.46564 348.73126 550.9969 348.15314Q551.52814 347.575 551.52814 346.6375Q551.52814 345.73126 551.0125 345.21564Q550.5125 344.6844 549.6844 344.6844Q549.1844 344.6844 548.7625 344.91876Q548.35626 345.15314 548.1219 345.5125L547.1375 345.3875L547.96564 340.98126L552.2469 340.98126L552.2469 341.98126L548.8094 341.98126L548.35626 344.29376Q549.1219 343.7469 549.96564 343.7469Q551.09064 343.7469 551.85626 344.52814Q552.6375 345.3094 552.6375 346.54376Q552.6375 347.7 551.96564 348.5594Q551.1375 349.59064 549.71564 349.59064Q548.54376 349.59064 547.79376 348.9344Q547.0594 348.27814 546.95 347.2ZM553.95 347.2L555.0594 347.10626Q555.1844 347.91876 555.6219 348.325Q556.075 348.73126 556.71564 348.73126Q557.46564 348.73126 557.9969 348.15314Q558.52814 347.575 558.52814 346.6375Q558.52814 345.73126 558.0125 345.21564Q557.5125 344.6844 556.6844 344.6844Q556.1844 344.6844 555.7625 344.91876Q555.35626 345.15314 555.1219 345.5125L554.1375 345.3875L554.96564 340.98126L559.2469 340.98126L559.2469 341.98126L555.8094 341.98126L555.35626 344.29376Q556.1219 343.7469 556.96564 343.7469Q558.09064 343.7469 558.85626 344.52814Q559.6375 345.3094 559.6375 346.54376Q559.6375 347.7 558.96564 348.5594Q558.1375 349.59064 556.71564 349.59064Q555.54376 349.59064 554.79376 348.9344Q554.0594 348.27814 553.95 347.2ZM561.54376 349.45L561.54376 348.2469L562.7469 348.2469L562.7469 349.45L561.54376 349.45ZM563.95 347.2L565.0594 347.10626Q565.1844 347.91876 565.6219 348.325Q566.075 348.73126 566.71564 348.73126Q567.46564 348.73126 567.9969 348.15314Q568.52814 347.575 568.52814 346.6375Q568.52814 345.73126 568.0125 345.21564Q567.5125 344.6844 566.6844 344.6844Q566.1844 344.6844 565.7625 344.91876Q565.35626 345.15314 565.1219 345.5125L564.1375 345.3875L564.96564 340.98126L569.2469 340.98126L569.2469 341.98126L565.8094 341.98126L565.35626 344.29376Q566.1219 343.7469 566.96564 343.7469Q568.09064 343.7469 568.85626 344.52814Q569.6375 345.3094 569.6375 346.54376Q569.6375 347.7 568.96564 348.5594Q568.1375 349.59064 566.71564 349.59064Q565.54376 349.59064 564.79376 348.9344Q564.0594 348.27814 563.95 347.2ZM571.15314 342.91876Q571.15314 341.9969 571.60626 341.35626Q572.075 340.71564 572.95 340.71564Q573.7625 340.71564 574.29376 341.29376Q574.825 341.8719 574.825 342.98126Q574.825 344.075 574.27814 344.66876Q573.7469 345.2469 572.96564 345.2469Q572.1844 345.2469 571.66876 344.66876Q571.15314 344.09064 571.15314 342.91876ZM572.98126 341.4344Q572.59064 341.4344 572.325 341.77814Q572.075 342.1219 572.075 343.02814Q572.075 343.85626 572.325 344.2Q572.59064 344.52814 572.98126 344.52814Q573.3875 344.52814 573.6375 344.1844Q573.90314 343.84064 573.90314 342.95Q573.90314 342.10626 573.6375 341.77814Q573.3719 341.4344 572.98126 341.4344ZM572.98126 349.7625L577.6844 340.71564L578.54376 340.71564L573.85626 349.7625L572.98126 349.7625ZM576.7 347.4344Q576.7 346.5125 577.15314 345.8719Q577.6219 345.23126 578.5125 345.23126Q579.325 345.23126 579.85626 345.8094Q580.3875 346.3719 580.3875 347.4969Q580.3875 348.59064 579.84064 349.1844Q579.3094 349.7625 578.5125 349.7625Q577.7469 349.7625 577.21564 349.1844Q576.7 348.60626 576.7 347.4344ZM578.54376 345.95Q578.1375 345.95 577.8719 346.29376Q577.6219 346.6375 577.6219 347.54376Q577.6219 348.35626 577.8875 348.7Q578.15314 349.04376 578.54376 349.04376Q578.9344 349.04376 579.2 348.7Q579.46564 348.35626 579.46564 347.45Q579.46564 346.6219 579.2 346.29376Q578.9344 345.95 578.54376 345.95Z" fill-rule="nonzero"/><path stroke="#757575" stroke-width="1.0" stroke-linecap="butt" d="M581.45 336.95L472.95 336.95L312.37692 343.61884" fill-rule="nonzero"/><path fill="#9e9e9e" d="M314.37692 343.61884C314.37692 342.51425 313.4815 341.61884 312.37692 341.61884C311.27234 341.61884 310.37692 342.51425 310.37692 343.61884C310.37692 344.7234 311.27234 345.61884 312.37692 345.61884C313.4815 345.61884 314.37692 344.7234 314.37692 343.61884" fill-rule="nonzero"/></svg>